<?xml version="1.0" encoding="UTF-8" standalone="no"?>
<!-- Created with Inkscape (http://www.inkscape.org/) -->

<svg
   xmlns:dc="http://purl.org/dc/elements/1.1/"
   xmlns:cc="http://creativecommons.org/ns#"
   xmlns:rdf="http://www.w3.org/1999/02/22-rdf-syntax-ns#"
   xmlns:svg="http://www.w3.org/2000/svg"
   xmlns="http://www.w3.org/2000/svg"
   xmlns:sodipodi="http://sodipodi.sourceforge.net/DTD/sodipodi-0.dtd"
   xmlns:inkscape="http://www.inkscape.org/namespaces/inkscape"
   id="svg3094"
   version="1.1"
   inkscape:version="0.48.1 r9760"
   width="113.38582"
   height="112.56177"
   sodipodi:docname="cubeShadow.jpg">
  <metadata
     id="metadata3100">
    <rdf:RDF>
      <cc:Work
         rdf:about="">
        <dc:format>image/svg+xml</dc:format>
        <dc:type
           rdf:resource="http://purl.org/dc/dcmitype/StillImage" />
        <dc:title></dc:title>
      </cc:Work>
    </rdf:RDF>
  </metadata>
  <defs
     id="defs3098" />
  <sodipodi:namedview
     pagecolor="#ffffff"
     bordercolor="#666666"
     borderopacity="1"
     objecttolerance="10"
     gridtolerance="10"
     guidetolerance="10"
     inkscape:pageopacity="0"
     inkscape:pageshadow="2"
     inkscape:window-width="1280"
     inkscape:window-height="1000"
     id="namedview3096"
     showgrid="false"
     units="mm"
     fit-margin-top="1"
     fit-margin-right="1"
     fit-margin-bottom="1"
     fit-margin-left="1"
     inkscape:zoom="0.21505376"
     inkscape:cx="45.446504"
     inkscape:cy="67.454924"
     inkscape:window-x="0"
     inkscape:window-y="24"
     inkscape:window-maximized="1"
     inkscape:current-layer="svg3094" />
  <g
     id="g3104"
     transform="matrix(0.0735588,0,0,0.0735588,1.7226836,2.4414252)">
    <path
       style="fill:#d3d3d3"
       d="m 605.07222,1448.1184 c -3.40737,-0.6147 -6.15776,-2.8687 -22.10905,-18.1184 -6.70392,-6.4091 -15.12912,-14.32 -28.069,-26.3557 -3.6332,-3.3794 -12.05274,-11.2644 -18.71008,-17.5222 -6.65735,-6.2578 -13.13473,-12.0515 -14.39418,-12.8748 -1.25945,-0.8234 -4.98991,-4.0754 -8.28991,-7.2267 -3.3,-3.1514 -9.15,-8.6637 -13,-12.2496 -8.05283,-7.5004 -16.79768,-15.705 -27.5,-25.8009 -4.125,-3.8912 -10.52363,-9.8639 -14.21919,-13.2725 -3.69555,-3.4087 -9.80967,-9.1226 -13.58693,-12.6976 -22.76841,-21.5492 -32.62585,-30.6435 -34.66778,-31.9838 -1.27052,-0.8339 -8.05758,-6.9162 -15.08235,-13.5162 -7.02477,-6.6 -15.66836,-14.7 -19.20797,-18 -3.53961,-3.3 -9.02136,-8.475 -12.18168,-11.5 -3.16031,-3.025 -9.40922,-8.875 -13.88647,-13 -4.47725,-4.125 -11.23735,-10.425 -15.02246,-14 -24.79435,-23.4181 -32.58145,-30.6085 -35.40106,-32.6888 -1.75438,-1.2943 -8.54897,-7.4064 -15.09909,-13.5823 -6.55011,-6.1759 -13.3813,-12.5789 -15.18041,-14.2289 -7.45283,-6.8351 -24.09629,-22.4361 -30.40437,-28.5 -6.11007,-5.8735 -19.52853,-18.3378 -30.42753,-28.2638 -2.27299,-2.07 -6.60771,-6.183 -9.63271,-9.1399 -3.025,-2.9569 -6.472,-6.0022 -7.66001,-6.7673 -1.188,-0.7652 -8.58871,-7.4522 -16.44601,-14.8601 -7.8573,-7.4079 -16.71613,-15.7189 -19.6863,-18.4689 -2.97016,-2.75 -8.47003,-7.925 -12.22192,-11.5 -3.75189,-3.575 -9.95885,-9.425 -13.79323,-13 -15.52543,-14.47517 -22.1927,-21.17615 -22.19598,-22.30818 -0.004,-1.44125 -2.17072,-24.39165 -5.49336,-58.19182 -1.35166,-13.75 -3.583659,-36.925 -4.959997,-51.5 -1.376338,-14.575 -4.779208,-50.125 -7.561934,-79 -2.782725,-28.875 -6.158031,-63.975 -7.50068,-78 -1.342649,-14.025 -4.458287,-46.425 -6.92364,-72 -2.465354,-25.575 -5.858881,-60.9 -7.541172,-78.5 -1.682292,-17.6 -4.163783,-43.25 -5.514426,-57 C 60.150698,498.75 57.919531,475.575 56.543193,461 55.166855,446.425 51.763985,410.875 48.981259,382 46.198534,353.125 42.823228,318.025 41.480579,304 40.13793,289.975 37.022292,257.575 34.556939,232 32.091585,206.425 28.697746,171.20155 27.015074,153.72567 24.007168,122.4862 24.000959,118 26.965633,118 c 0.492396,0 1.039063,-1.0125 1.214816,-2.25 0.298646,-2.10281 1.2027,-2.36526 13.819551,-4.01183 14.438835,-1.88436 64.79486,-8.28623 159,-20.214025 32.175,-4.073839 74.475,-9.444283 94,-11.934319 50.25651,-6.409245 86.0917,-10.966892 127,-16.152307 19.525,-2.474931 47.875,-6.074931 63,-8 15.125,-1.925069 43.475,-5.524686 63,-7.99915 19.525,-2.474464 49.675,-6.302752 67,-8.507306 17.325,-2.204554 58.05,-7.372104 90.5,-11.483444 32.45,-4.111339 67.86063,-8.598554 78.69028,-9.971587 l 19.69028,-2.496425 16.80972,3.579677 c 9.24535,1.968822 26.03472,5.532196 37.30972,7.918609 11.275,2.386413 28.15,5.9752 37.5,7.975083 38.80409,8.299854 55.38,11.827611 62,13.195102 3.85,0.795294 16.45,3.467968 28,5.939277 30.0481,6.429275 50.5991,10.814346 69.5,14.829601 9.075,1.927863 23.025,4.903559 31,6.612658 7.975,1.709099 23.05,4.919698 33.5,7.134665 28.2139,5.980172 77.9824,16.572934 110,23.412471 8.8,1.87984 25.675,5.46961 37.5,7.97727 11.825,2.50766 30.05,6.38572 40.5,8.61791 10.45,2.23219 21.7,4.62495 25,5.31725 8.8704,1.86087 33.7839,7.17508 52,11.0919 8.8,1.89217 20.5,4.34993 26,5.46169 5.5,1.11176 16.975,3.56 25.5,5.44053 8.525,1.88053 18.6062,4.01186 22.4026,4.7363 4.9059,0.93616 7.2201,1.88371 8,3.27574 0.6036,1.07722 1.7552,2.48258 2.5591,3.12302 1.562,1.24432 1.2212,6.92875 -2.4508,40.88164 -0.8328,7.7 -3.0902,29.3 -5.0165,48 -1.9263,18.7 -5.3076,51.325 -7.514,72.5 -2.2064,21.175 -5.3378,51.325 -6.9586,67 -1.6207,15.675 -3.6387,35.025 -4.4844,43 -0.8456,7.975 -2.6727,25.75 -4.0602,39.5 -1.3874,13.75 -3.6423,35.575 -5.0109,48.5 -1.3686,12.925 -3.1605,30.025 -3.982,38 -0.8216,7.975 -2.6036,25.075 -3.9601,38 -1.3566,12.925 -4.2728,41.05 -6.4805,62.5 -2.2077,21.45 -4.4749,43.275 -5.0383,48.5 -1.0124,9.38947 -4.1481,39.58988 -11.9924,115.5 -2.2166,21.45 -5.8231,56.1 -8.0144,77 -2.1914,20.9 -4.8798,46.775 -5.9742,57.5 -1.0945,10.725 -3.3434,32.55 -4.9977,48.5 -1.6542,15.95 -3.4696,33.5 -4.034,39 -2.3553,22.9484 -3.8156,34.144 -4.7609,36.5 -0.8286,2.0652 -11.6765,7.6161 -62.3674,31.9136 -33.7504,16.1775 -101.4144,48.6311 -150.3644,72.1192 -48.95,23.4881 -132.65,63.6421 -186,89.2311 -121.25368,58.1585 -178.22378,85.4901 -282.09954,135.3381 -45.15475,21.6689 -82.72975,39.3388 -83.5,39.2664 -0.77025,-0.072 -2.94296,-0.4099 -4.82824,-0.75 z M 739,1374.5052 c 116.05806,-55.6924 222.75446,-106.8811 308.5,-148.006 33.55,-16.0912 111.4,-53.4502 173,-83.0201 61.6,-29.5699 117.1397,-56.1937 123.4215,-59.1641 9.7014,-4.5873 11.2073,-5.6037 10,-6.7487 -0.7818,-0.7414 -28.6465,-16.1839 -61.9215,-34.3167 -33.275,-18.1328 -99.65,-54.34602 -147.5,-80.47386 -47.85,-26.12784 -123.9,-67.65416 -169,-92.28072 -198.32747,-108.29539 -180.28513,-98.71358 -183.81948,-97.6216 -7.59633,2.347 -58.20545,18.66597 -68.68052,22.14612 -13.55329,4.50284 -40.02968,13.10897 -81.5,26.49153 -16.5,5.32458 -32.2031,10.42533 -34.89578,11.33499 l -4.89578,1.65394 0.65762,40.5 c 0.36169,22.275 1.55405,85.95 2.64969,141.5 C 610.6204,1300.6619 613,1423.5837 613,1428.9392 l 0,5.9216 13.25,-6.3044 c 7.2875,-3.4674 58.025,-27.7905 112.75,-54.0512 z M 597.41155,1256 c -1.87187,-95.425 -4.47689,-228.0842 -5.78893,-294.79813 -1.31205,-66.71396 -2.61816,-121.53075 -2.90248,-121.81507 -0.51385,-0.51384 -19.73268,5.30879 -41.72014,12.63972 -6.325,2.10885 -22.3,7.27868 -35.5,11.48851 -13.2,4.20983 -29.175,9.38392 -35.5,11.49797 -6.325,2.11406 -22.3,7.30234 -35.5,11.52952 -13.2,4.22719 -29.175,9.39581 -35.5,11.48584 -6.325,2.09003 -18.475,6.05076 -27,8.80162 -8.525,2.75086 -24.725,7.98966 -36,11.64178 -25.90761,8.39181 -44.24021,14.30228 -74.5,24.01897 -13.2,4.23864 -29.175,9.42358 -35.5,11.5221 -6.325,2.09851 -23.65,7.7105 -38.5,12.47107 -14.85,4.76057 -31.5,10.16752 -37,12.01545 -5.5,1.84793 -14.6125,4.83069 -20.25,6.62837 -5.6375,1.79767 -10.25,3.67435 -10.25,4.17039 0,0.49604 1.48851,2.31939 3.30781,4.05189 4.23672,4.0346 23.87556,22.264 28.02408,26.0129 1.74246,1.5746 5.64311,5.2167 8.66811,8.0935 3.025,2.8768 6.44908,5.8635 7.60906,6.6371 1.15999,0.7736 8.09407,7.0315 15.40908,13.9065 7.315,6.875 16.18241,15.2 19.70535,18.5 3.52294,3.3 9.63885,9.0604 13.59092,12.8008 3.95208,3.7404 10.11059,9.5052 13.68559,12.8106 3.575,3.3054 9.7167,9.02 13.64822,12.6992 3.93153,3.6792 10.03804,9.3894 13.57002,12.6894 3.53199,3.3 9.31529,8.7303 12.85178,12.0673 3.53649,3.337 7.77998,7.0836 9.42998,8.3258 1.65,1.2421 8.31725,7.2869 14.81611,13.4327 6.49886,6.1458 15.22098,14.3242 19.38249,18.1742 4.16152,3.85 9.93648,9.25 12.83327,12 2.89678,2.75 8.66547,8.15 12.8193,12 4.15384,3.85 10.38662,9.7022 13.85063,13.0049 10.06649,9.5977 28.62627,26.7292 32.49584,29.9951 5.80758,4.9016 22.09993,19.957 37.33441,34.5 6.20625,5.9245 13.67022,12.8644 27.42569,25.5 4.78997,4.4 10.61846,9.8 12.9522,12 10.65539,10.0448 20.93668,19.5288 27.64362,25.5 4.01549,3.575 10.25865,9.2716 13.87367,12.6591 3.61502,3.3874 9.94777,9.2796 14.07277,13.0936 7.84077,7.2496 16.75375,15.6149 27.43299,25.7473 3.47809,3.3 10.46906,9.825 15.53549,14.5 5.06643,4.675 11.31612,10.525 13.88821,13 10.35097,9.9603 18.31585,17.1603 18.62814,16.8393 0.18157,-0.1866 -1.20141,-78.4143 -3.07328,-173.8393 z m 770.05885,-218.5 c 1.4313,-14.3 4.3873,-43.1 6.569,-64 2.1817,-20.9 4.6678,-44.75 5.5246,-53 0.8568,-8.25 2.4216,-23.1 3.4772,-33 1.0556,-9.9 2.1596,-20.475 2.4533,-23.5 0.2938,-3.025 2.3207,-22.6 4.5044,-43.5 2.1836,-20.9 4.8671,-46.775 5.9633,-57.5 2.6226,-25.66042 6.6841,-64.88881 8.5933,-83 0.8406,-7.975 3.293,-31.6 5.4496,-52.5 2.1567,-20.9 5.749,-55.55 7.9829,-77 2.234,-21.45 5.3837,-51.825 6.9994,-67.5 1.6158,-15.675 3.4139,-33 3.9958,-38.5 0.582,-5.5 2.6302,-25.3 4.5516,-44 1.9214,-18.7 4.612,-44.575 5.9791,-57.5 1.3671,-12.925 3.1618,-30.025 3.9881,-38 2.296,-22.15859 4.9329,-47.50961 9.642,-92.69801 2.3613,-22.65891 3.9703,-41.52105 3.5754,-41.91588 -0.7225,-0.72253 -15.7522,2.2199 -264.2194,51.72719 -315.58686,62.88095 -384.6853,76.73867 -385.1983,77.25167 -0.29781,0.29781 -1.70093,104.36113 -3.11805,231.25183 l -2.57657,230.71036 2.34825,1.58642 c 2.13483,1.44224 52.64417,29.0892 243.04467,133.03377 36.025,19.66698 100.375,54.80698 143,78.08888 42.625,23.28191 99.1,54.12857 125.5,68.54807 l 48,26.2173 0.6841,-2.6508 c 0.3762,-1.4579 1.855,-14.3508 3.2863,-28.6508 z M 137.5,972.19443 c 14.40552,-4.86377 57.03406,-18.69498 107,-34.7171 13.2,-4.23272 30.525,-9.85026 38.5,-12.48342 7.975,-2.63315 25.3,-8.24373 38.5,-12.46795 13.2,-4.22421 28.5,-9.19573 34,-11.04782 5.5,-1.8521 22.825,-7.48931 38.5,-12.52715 15.675,-5.03784 31.65,-10.20078 35.5,-11.47319 3.85,-1.27241 13.975,-4.56379 22.5,-7.31417 8.525,-2.75039 24.725,-7.97779 36,-11.61645 11.275,-3.63865 28.15,-9.08286 37.5,-12.09824 9.35,-3.01538 26.65806,-8.62495 38.46235,-12.46572 C 575.76663,830.14245 585.97758,827 586.65333,827 c 0.67575,0 1.49018,-0.42318 1.80984,-0.9404 0.31966,-0.51722 -0.32817,-46.75472 -1.43962,-102.75 C 581.57471,448.79488 580,366.02775 580,354.14957 l 0,-12.93861 -17.75,-7.02773 c -9.7625,-3.86525 -22.925,-9.04512 -29.25,-11.51081 -12.54129,-4.889 -35.57084,-13.89354 -49,-19.15897 -4.675,-1.83302 -16.15,-6.32283 -25.5,-9.97737 -25.2208,-9.85778 -55.44623,-21.69083 -78,-30.53647 -11,-4.31422 -25.175,-9.86144 -31.5,-12.32715 -12.54745,-4.89145 -35.58187,-13.89791 -49,-19.15901 -4.675,-1.83302 -16.15,-6.32283 -25.5,-9.97737 -9.35,-3.65453 -26,-10.18097 -37,-14.50321 -11,-4.32223 -25.2875,-9.92281 -31.75,-12.44573 -20.00357,-7.80929 -34.61158,-13.53666 -51.25,-20.09363 -8.8,-3.46796 -27.25,-10.66224 -41,-15.98728 C 99.75,153.18118 86.475,147.98836 84,146.96662 70.969119,141.58717 37.675862,128.9908 37.349914,129.31675 c -0.20753,0.20753 0.766835,12.25866 2.165255,26.78029 1.398419,14.52163 4.096325,42.60296 5.995345,62.40296 1.89902,19.8 5.49147,57.15 7.983222,83 2.491753,25.85 6.320552,65.675 8.508444,88.5 2.187892,22.825 4.440302,46.225 5.005356,52 0.565055,5.775 2.364936,24.45 3.999737,41.5 1.634801,17.05 5.005788,52.15 7.491083,78 2.485294,25.85 5.855908,60.95 7.490253,78 1.634345,17.05 5.010947,52.15 7.503561,78 2.492614,25.85 6.322118,65.675 8.51001,88.5 2.18789,22.825 4.44037,46.225 5.00551,52 2.22056,22.69122 6.98826,72.65935 9.0167,94.5 1.17487,12.65 2.29527,23.52182 2.48979,24.15959 0.45094,1.47855 3.51859,0.75709 18.98582,-4.46516 z M 629,812.96294 c 6.325,-2.11337 20.725,-6.81696 32,-10.45244 11.275,-3.63548 27.25,-8.80119 35.5,-11.47936 8.25,-2.67817 27.15,-8.8006 42,-13.60541 14.85,-4.80481 32.175,-10.451 38.5,-12.54709 l 11.5,-3.81106 0.66817,-16.28379 c 1.02797,-25.05255 5.28088,-441.66807 4.51645,-442.4325 -0.66818,-0.66819 -198.9589,38.58438 -200.86788,39.76273 -0.657,0.40555 -0.27707,36.7344 1.11903,107 4.93267,248.26169 7.05163,357.85189 7.05773,365.01821 l 0.006,7.63224 8.25,-2.47953 c 4.5375,-1.36374 13.425,-4.20864 19.75,-6.322 z m 3.26956,-491.53645 c 81.68957,-16.20077 161.9965,-32.35927 162.2326,-32.64271 0.43301,-0.51981 2.83943,-259.775619 2.41513,-260.194207 C 796.68778,28.363152 771.975,31.289937 742,35.09354 712.025,38.897143 658.925,45.63653 624,50.069955 589.075,54.50338 523.6,62.80468 478.5,68.517288 c -45.1,5.712608 -108.55,13.774756 -141,17.915885 -32.45,4.141129 -80.15,10.210635 -106,13.487791 -25.85,3.277156 -74,9.382036 -107,13.566406 -33,4.18436 -62.210246,7.92447 -64.911657,8.31134 l -4.911657,0.70341 7.911657,3.19737 c 7.54337,3.04854 33.662544,13.30382 58.411657,22.93441 6.325,2.46124 15.325,6.00565 20,7.87646 4.675,1.87082 16.6,6.52827 26.5,10.3499 9.9,3.82163 25.425,9.87198 34.5,13.44522 9.075,3.57324 27.075,10.63328 40,15.68899 12.925,5.0557 29.8,11.66154 37.5,14.67965 7.7,3.0181 19.175,7.50061 25.5,9.96111 6.325,2.46051 15.325,6.00432 20,7.87513 4.675,1.87082 16.6,6.52827 26.5,10.3499 9.9,3.82163 25.425,9.87198 34.5,13.44522 9.075,3.57324 27.075,10.63328 40,15.68899 12.925,5.0557 29.8,11.66154 37.5,14.67965 7.7,3.0181 19.175,7.50061 25.5,9.96111 6.325,2.46051 15.325,6.00257 20,7.87125 4.675,1.86868 20.65,8.12129 35.5,13.89469 14.85,5.77339 29.7,11.62596 33,13.00569 3.3,1.37973 7.2463,2.52762 8.76956,2.55087 1.52325,0.0232 22.22325,-3.81581 46,-8.53124 z M 1053.5,237.48254 c 256.3197,-51.04457 378.9495,-75.59875 379.2976,-75.94676 0.19,-0.19 -1.1493,-0.63744 -2.9761,-0.9943 -3.9774,-0.77697 -8.0608,-1.65174 -25.8215,-5.53157 -7.425,-1.62199 -19.125,-4.09217 -26,-5.48929 -6.875,-1.39711 -15.425,-3.20172 -19,-4.01023 -10.3254,-2.33516 -66.443,-14.24993 -89.8934,-19.08596 -9.0164,-1.85939 -17.1164,-3.60872 -18,-3.8874 -0.8836,-0.27868 -10.1566,-2.2967 -20.6066,-4.4845 -10.45,-2.1878 -26.425,-5.56842 -35.5,-7.51249 -24.5162,-5.25193 -57.3456,-12.19841 -76,-16.081076 -9.075,-1.888846 -19.2,-4.061672 -22.5,-4.828502 -3.3,-0.76683 -8.475,-1.899657 -11.5,-2.517393 -3.025,-0.617736 -13.825,-2.898031 -24,-5.067321 -10.175,-2.169291 -25.925,-5.520363 -35,-7.446828 -31.35913,-6.656998 -49.55547,-10.532984 -64,-13.632587 -7.975,-1.711328 -22.825,-4.87698 -33,-7.034783 -18.19267,-3.858102 -38.4227,-8.167991 -75,-15.978304 -36.30518,-7.752209 -43.1761,-9.110483 -43.65638,-8.630197 -0.41123,0.411226 -3.2294,208.865231 -3.3152,245.217961 L 807,286.58201 860.75,275.8728 c 29.5625,-5.89007 116.3,-23.16568 192.75,-38.39026 z"
       id="path3118"
       inkscape:connector-curvature="0" />
    <path
       style="fill:#a9a9a9"
       d="m 605.40421,1447.1184 c -2.34815,-0.4691 -62.36211,-55.5871 -248.5,-228.2276 C 221.93189,1093.7057 110.74506,990.43067 109.82235,989.39075 c -1.41112,-1.59036 -8.2906,-70.66394 -43.301651,-434.77132 -41.051703,-426.9289 -41.597833,-432.90972 -39.721358,-435 1.046449,-1.16569 2.156131,-2.84325 2.465959,-3.72792 0.328098,-0.93683 2.164989,-1.84907 4.399013,-2.18464 C 35.773941,113.38999 210.075,91.255339 421,64.518763 L 804.5,15.906808 1135,86.306444 c 292.9868,62.408966 330.541,70.614946 330.8615,72.296596 0.1988,1.04333 0.9863,2.25682 1.75,2.69665 0.8016,0.46169 1.3747,2.36368 1.356,4.5 -0.018,2.03517 -21.3195,208.58938 -47.3369,459.00935 -42.6783,410.78396 -47.4913,455.49106 -49.2174,457.17016 -2.3114,2.2485 -760.53719,366.0767 -762.52086,365.8892 -0.76579,-0.072 -2.78545,-0.4099 -4.48813,-0.75 z m 379.11967,-189.4168 c 204.41822,-98.0642 371.73852,-178.7267 371.82282,-179.25 0.084,-0.5234 -126.1924,-69.945 -280.6149,-154.2702 L 794.96367,770.86279 698.00241,802.1814 601.04114,833.5 601.02386,848 c -0.01,7.975 2.45415,140.5 5.4748,294.5 3.02065,154 5.49417,283.0375 5.49671,286.75 0.003,3.7125 0.19687,6.75 0.43182,6.75 0.23495,0 167.67847,-80.2343 372.09669,-178.2984 z M 601.55451,1414.25 c -0.33379,-9.2125 -2.84751,-136.225 -5.58604,-282.25 -5.36262,-285.94731 -5.5633,-294.00428 -7.32243,-293.992 -1.60249,0.0112 -463.68482,149.69744 -464.43612,150.44874 -0.33653,0.33654 1.16606,2.33682 3.3391,4.44506 16.909,16.4048 472.72719,438.0982 473.55056,438.0982 0.73097,0 0.87272,-5.2189 0.45493,-16.75 z m 763.87789,-349 c 2.1489,-16.4622 92.5946,-892.24226 92.3591,-894.30795 l -0.2915,-2.55796 -325.474,64.8653 c -179.01071,35.67591 -325.64773,65.039 -325.86004,65.25132 -0.21232,0.21232 -1.54795,104.37151 -2.96806,231.46488 -2.33288,208.78097 -2.43237,231.22851 -1.03103,232.62986 1.48091,1.4809 560.62783,307.29545 561.98933,307.36905 0.3609,0.019 0.9351,-2.102 1.2762,-4.7145 z M 353.67967,902.98226 C 482.79536,861.1725 588.78316,826.61684 589.2081,826.1919 c 0.93887,-0.93887 -8.25,-484.35735 -9.2284,-485.49773 C 579.16047,339.7393 38.453985,128 36.834816,128 c -0.748278,0 -0.915896,1.71142 -0.514191,5.25 0.327793,2.8875 18.634672,193.35 40.681954,423.25 22.047281,229.9 40.299621,419.0125 40.560741,420.25 0.26113,1.2375 0.67408,2.25 0.91766,2.25 0.24358,0 106.08299,-34.20798 235.19869,-76.01774 z M 696.98734,791.79621 c 50.86804,-16.46566 92.66406,-30.11427 92.88003,-30.33025 0.75588,-0.75588 5.5054,-459.42652 4.76502,-460.16691 -0.67928,-0.67927 -202.33134,39.06657 -203.34412,40.07935 -0.23859,0.23859 1.62946,105.88855 4.15122,234.7777 2.52176,128.88914 4.5795,237.18672 4.57276,240.66129 -0.0118,6.09447 0.0671,6.29267 2.23775,5.61689 1.2375,-0.38528 43.86931,-14.1724 94.73734,-30.63807 z M 692.25,310.38813 796,289.76735 795.9754,274.63368 c -0.0135,-8.32353 0.52357,-67.20907 1.19357,-130.85677 C 797.83896,80.129205 798.17293,27.839592 797.9111,27.577767 797.13898,26.805648 53.959511,121.43787 53.719292,122.33889 53.437771,123.39483 582.66968,330.76612 586,330.9048 c 1.375,0.0573 49.1875,-9.17524 106.25,-20.51667 z m 428.7974,-85.44211 c 171.2989,-34.12969 312.5741,-62.33084 313.9449,-62.66922 l 2.4923,-0.61525 -2.4923,-0.77621 C 1429.014,159.02345 809.92137,27.745299 809.43113,28.235532 808.98267,28.683998 806.10763,237.57452 806.0245,275.75 c -0.0222,10.1698 0.14809,11.25 1.77293,11.25 0.98859,0 141.95109,-27.92429 313.24997,-62.05398 z"
       id="path3116"
       inkscape:connector-curvature="0" />
    <path
       style="fill:#929292"
       d="m 608.44992,1446.919 c -0.36746,-0.5946 -1.74249,-0.8114 -3.05563,-0.4818 -2.35591,0.5913 -9.36223,-5.6155 -64.89429,-57.4884 -2.75,-2.5688 -27.5,-25.5195 -55,-51.0015 -27.5,-25.482 -52.25,-48.4478 -55,-51.035 -2.75,-2.5872 -27.5,-25.5182 -55,-50.9578 -27.5,-25.4396 -52.25,-48.4073 -55,-51.0393 -2.75,-2.6319 -27.52607,-25.6271 -55.05793,-51.1003 -123.40224,-114.175 -155.2707,-143.92593 -155.88525,-145.52744 -0.36171,-0.94258 -1.3094,-8.48037 -2.10598,-16.75063 -1.60476,-16.66084 -1.68791,-17.52377 -7.42338,-77.03683 -2.226227,-23.1 -5.166504,-53.7 -6.533951,-68 -1.367447,-14.3 -3.399894,-35.45 -4.516549,-47 C 85.545187,744.00382 76.08155,645.65692 74.013645,624 72.00994,603.01544 66.636615,547.03377 64.991182,530 61.420713,493.03798 55.576689,432.27815 53.497391,410.5 52.132079,396.2 49.902009,373.025 48.54168,359 43.996793,312.14218 34.414421,212.35881 28.915364,154.6268 25.937846,123.36725 25.816635,120.68212 27.344447,119.82711 28.255001,119.31754 29,118.05055 29,117.01158 c 0,-1.46812 0.946978,-2.01347 4.25,-2.44752 24.79746,-3.25856 45.626789,-5.93751 62.25,-8.00621 26.59698,-3.30991 104.02673,-13.113856 186,-23.550825 22.39925,-2.85191 56.98152,-7.248984 122,-15.512084 25.21765,-3.204873 70.16417,-8.905339 134,-16.994918 14.85,-1.881863 39.6,-5.032456 55,-7.001318 15.4,-1.968862 45.775,-5.824937 67.5,-8.569056 80.17598,-10.127152 101.9503,-12.900484 121.5,-15.475105 22.89372,-3.015016 23.37365,-2.990391 48.17002,2.471617 9.80649,2.16012 30.87998,6.690363 46.82998,10.067207 15.95,3.376844 39.575,8.405063 52.5,11.173821 12.925,2.768757 28.45,6.067232 34.5,7.329944 17.86186,3.727996 26.0911,5.475079 43,9.128974 15.6599,3.383993 36.4254,7.793312 69.5,14.757515 9.075,1.910838 18.75,3.988208 21.5,4.616378 2.75,0.62817 12.425,2.715887 21.5,4.639371 9.075,1.923484 20.55,4.381896 25.5,5.463138 4.95,1.081241 13.275,2.832242 18.5,3.891113 5.225,1.05887 19.175,3.997493 31,6.530272 39.1087,8.376636 54.3254,11.609686 70.5,14.978946 8.8,1.8331 18.25,3.85516 21,4.49348 2.75,0.63832 12.425,2.70407 21.5,4.59055 9.075,1.88648 19.425,4.09854 23,4.91569 3.575,0.81715 18.425,4.00552 33,7.08527 14.575,3.07975 29.425,6.25383 33,7.05351 3.575,0.79969 10.775,2.29607 16,3.32529 5.225,1.02922 16.7,3.44539 25.5,5.36928 8.8,1.92388 18.5875,4.01725 21.75,4.65193 3.1625,0.63467 5.75,1.65555 5.75,2.26861 0,0.61305 0.8468,2.04365 1.8817,3.1791 1.8445,2.02355 1.8247,2.59942 -0.9965,29.06445 -2.7826,26.10286 -4.4654,42.29723 -10.8069,104 -1.6392,15.95 -5.4897,53.075 -8.5565,82.5 -9.3649,89.85236 -28.8314,277.34594 -30.5764,294.5 -0.5595,5.5 -2.8004,27.1 -4.9798,48 -2.1795,20.9 -5.0995,49.025 -6.4891,62.5 -1.3896,13.475 -3.1909,30.8 -4.003,38.5 -0.812,7.7 -1.9275,18.275 -2.4788,23.5 -0.5512,5.225 -2.3514,22.55 -4.0004,38.5 -1.6489,15.95 -4.5809,44.3 -6.5154,63 -1.9345,18.7 -4.4214,42.775 -5.5265,53.5 -1.1051,10.725 -2.9126,28.05 -4.0166,38.5 -1.104,10.45 -2.4751,23.95 -3.0469,30 -0.6972,7.3764 -1.6,11.7876 -2.7408,13.391 -1.1946,1.679 -114.8354,56.6773 -381.67461,184.7175 -208.98542,100.2797 -380.28443,182.3412 -380.66447,182.3591 -0.38004,0.018 -0.99164,-0.4541 -1.3591,-1.0486 z m 376.76892,-189.0072 c 204.20466,-97.9485 371.65156,-178.4415 372.10436,-178.8732 1.1265,-1.0742 2.9099,-0.063 -76.8232,-43.5771 C 1162.6553,971.14754 1062.9424,916.71095 976.5,869.49774 931.4,844.86497 872.35247,812.62594 845.28326,797.85545 818.21405,783.08495 795.27445,771 794.30638,771 792.73702,771 745.9902,785.96737 635.75,821.7665 l -35.75,11.60937 -0.02,11.06207 c -0.0347,19.20729 11.10556,589.00186 11.54141,590.31206 0.22869,0.6875 0.8659,1.25 1.41603,1.25 0.55012,0 168.07675,-80.1397 372.28138,-178.0882 z m -383.05679,151.499 C 600.05044,1272.5076 590.98085,838.58085 590.215,837.815 c -0.62957,-0.62957 -20.4856,5.33733 -56.34359,16.93172 C 233.61758,951.83136 124,987.62733 124,988.59155 c 0,0.6251 29.79285,28.76025 66.20633,62.52245 36.41348,33.7623 69.15098,64.148 72.75,67.5237 6.49389,6.091 74.33298,68.9332 81.04367,75.0741 1.925,1.7615 60.425,56.0615 130,120.6666 69.575,64.6051 126.95,117.3467 127.5,117.2036 0.64138,-0.167 0.8788,-8.1179 0.66205,-22.1712 z m 764.56985,-349.4194 c 0.6775,-5.2203 2.8157,-25.0164 4.7516,-43.9914 1.9359,-18.975 4.1797,-40.8 4.9863,-48.5 0.8065,-7.7 2.6057,-25.25 3.9981,-39 1.3925,-13.75 2.9613,-28.825 3.4864,-33.5 1.17,-10.4159 2.2028,-20.24593 6.0415,-57.5 1.6435,-15.95 4.5787,-44.3 6.5227,-63 1.944,-18.7 3.9901,-38.5 4.5469,-44 0.5568,-5.5 2.3632,-22.825 4.0143,-38.5 1.651,-15.675 4.3194,-41.325 5.9297,-57 1.6104,-15.675 3.4048,-33 3.9876,-38.5 0.5827,-5.5 1.7028,-16.3 2.4889,-24 0.7861,-7.7 2.5759,-25.025 3.9773,-38.5 1.4013,-13.475 3.6858,-35.525 5.0766,-49 1.3908,-13.475 5.6701,-54.65 9.5095,-91.5 3.8395,-36.85 8.0967,-77.8 9.4606,-91 1.3638,-13.2 3.8367,-37.05 5.4953,-53 7.2214,-69.445 8.2729,-80.55526 7.6801,-81.14802 -0.6255,-0.6255 -47.1575,8.49957 -273.6853,53.67057 -65.725,13.10595 -177.55,35.39015 -248.5,49.52044 -70.95,14.13029 -129.60869,26.26345 -130.35264,26.96258 -1.1145,1.04735 -1.80594,41.68963 -3.92731,230.84593 -1.80033,160.52933 -2.26092,230.26256 -1.53145,231.86164 0.60929,1.33564 4.73857,4.32024 9.92731,7.17537 4.88625,2.68868 45.33409,24.78813 89.88409,49.1099 44.55,24.32178 117.9,64.3742 163,89.0054 45.1,24.6312 109.225,59.65098 142.5,77.82173 33.275,18.17076 82.1,44.86346 108.5,59.31706 26.4,14.4537 48.675,26.1806 49.5,26.0598 1.1091,-0.1624 1.821,-2.6931 2.7319,-9.711 z M 193.23766,955.59254 C 232.98195,942.71844 327.6,912.08456 403.5,887.51725 c 75.9,-24.5673 148.738,-48.15511 161.86221,-52.41736 13.90299,-4.51515 24.22368,-8.39543 24.72827,-9.29709 0.49511,-0.88471 -0.38961,-65.31468 -2.06556,-150.42518 C 586.41253,593.49493 584.32656,484.875 583.38944,434 c -1.16743,-63.37812 -2.0479,-92.85331 -2.79665,-93.62223 -1.92894,-1.98089 -543.863323,-213.50724 -544.746571,-212.62399 -0.467782,0.46778 -0.173621,7.57705 0.653692,15.79837 0.827312,8.22132 2.839689,28.89785 4.471949,45.94785 3.589667,37.49637 13.135827,137.13235 16.575194,173 1.371234,14.3 3.153861,32.75 3.961393,41 3.594681,36.72439 4.670334,47.84928 7.445041,77 1.622903,17.05 5.00714,52.375 7.520528,78.5 6.953267,72.27459 12.227825,127.17554 15.564002,162 6.868051,71.69171 8.069182,84.18439 9.470432,98.5 3.5651,36.42225 4.67005,47.84298 7.49804,77.5 1.65206,17.325 3.93936,41.85 5.0829,54.5 2.16408,23.93952 2.86023,27.5 5.37683,27.5 0.83001,0 34.02715,-10.53336 73.77144,-23.40746 z M 608.55583,821.05217 c 3.26929,-1.0713 45.09417,-14.60593 92.94417,-30.07695 47.85,-15.47101 87.61729,-28.72785 88.37176,-29.45965 1.13946,-1.10521 1.80321,-39.83111 3.9195,-228.67964 1.40126,-125.04202 2.23339,-228.60159 1.84918,-230.13239 -0.6495,-2.58781 -0.95986,-2.73718 -4.4195,-2.12708 -26.77222,4.72127 -199.06316,39.8871 -200.02349,40.82624 -1.06987,1.04628 -0.58146,38.23461 2.73419,208.18556 2.2202,113.80146 4.30465,221.31174 4.63211,238.91174 0.32745,17.6 0.77044,32.5625 0.98442,33.25 0.52865,1.69848 2.05592,1.58017 9.00766,-0.69783 z M 634.55037,322.5141 c 126.06614,-24.93972 160.03641,-31.87885 161.07952,-32.90384 1.62203,-1.59385 4.15967,-259.953969 2.57209,-261.866891 -0.92993,-1.120498 -4.84416,-0.873536 -23.40931,1.476977 C 670.70083,42.399293 647.41548,45.355637 583.75,53.475415 c -14.9875,1.911478 -45.25,5.750695 -67.25,8.531594 -22,2.780899 -55.75,7.057465 -75,9.50348 -19.25,2.446014 -44,5.590021 -55,6.986681 -11,1.39666 -35.975,4.57316 -55.5,7.058888 -52.57342,6.693124 -84.90546,10.798656 -129.5,16.443952 -36.6859,4.64413 -63.30994,8.02918 -125.876828,16.0043 -12.582256,1.60381 -23.127256,3.16644 -23.433334,3.47252 -0.306077,0.30608 -0.136505,0.95809 0.376829,1.44891 0.8874,0.84849 531.466703,208.70599 533.483703,208.99531 0.3027,0.0434 22.1277,-4.1897 48.5,-9.40695 z M 860.5,277.47401 c 66.36483,-13.19179 283.4389,-56.42961 449,-89.43393 69.3,-13.81483 126.8214,-25.36646 127.8254,-25.67028 1.0039,-0.30383 1.6063,-0.77146 1.3385,-1.03919 -0.4901,-0.49014 -19.3869,-4.6605 -58.1639,-12.83628 -40.1123,-8.45731 -49.0273,-10.35464 -54,-11.49242 -4.92,-1.12574 -19.992,-4.33416 -56.5,-12.02736 -18.1451,-3.82364 -45.2119,-9.58762 -78,-16.61042 -9.075,-1.94374 -23.7,-5.02949 -32.5,-6.85722 -8.8,-1.827721 -18.925,-4.00614 -22.5,-4.840926 -3.575,-0.834787 -12.35,-2.698689 -19.5,-4.142005 -7.15,-1.443316 -16.825,-3.48465 -21.5,-4.536298 -4.675,-1.051648 -12.775,-2.812103 -18,-3.912121 -5.225,-1.100019 -17.15,-3.644303 -26.5,-5.653965 -9.35,-2.009662 -18.8,-4.029742 -21,-4.489067 -2.2,-0.459324 -12.55,-2.636657 -23,-4.838518 -10.45,-2.20186 -26.425,-5.567293 -35.5,-7.478741 -9.075,-1.911447 -20.55,-4.380211 -25.5,-5.486143 -4.95,-1.105931 -14.625,-3.197072 -21.5,-4.64698 -6.875,-1.449908 -16.55,-3.517174 -21.5,-4.593924 -4.95,-1.076751 -12.15,-2.599593 -16,-3.384095 -3.85,-0.784502 -17.8,-3.739154 -31,-6.565894 -42.61807,-9.126529 -46.89722,-9.913553 -47.6121,-8.756849 -0.92877,1.502781 -1.70653,43.302201 -2.95025,158.556316 -0.58899,54.58073 -0.78935,99.69323 -0.44525,100.25 0.3441,0.55676 0.93658,1.01437 1.31662,1.01689 0.38004,0.003 24.54098,-4.73624 53.69098,-10.53058 z"
       id="path3114"
       inkscape:connector-curvature="0" />
    <path
       style="fill:#6b6b6b"
       d="m 605.4033,1446.1184 c -2.34936,-0.4692 -62.51713,-55.7235 -249.31451,-228.9547 C 220.66899,1091.5787 109.67868,988.3037 109.44366,987.66367 109.20863,987.02365 90.314375,791.92879 67.456427,554.11953 L 25.89652,121.73905 27.94826,119.55507 C 29.076717,118.35389 30,116.8887 30,116.29909 c 0,-0.5896 1.9125,-1.34452 4.25,-1.67759 C 36.5875,114.28843 210.625,92.157175 421,65.440939 l 382.5,-48.574973 330.3574,70.284469 c 294.5081,62.657415 330.4541,70.505035 331.2476,72.317015 0.4896,1.1179 1.421,2.77173 2.0698,3.67517 0.9291,1.29395 -8.8636,98.5083 -46.1361,458 -26.0235,250.99656 -47.8157,457.44268 -48.4271,458.76918 -0.8947,1.9412 -75.257,37.9851 -381.1116,184.727 -209,100.2733 -380.675,182.2663 -381.5,182.2065 -0.825,-0.06 -2.89351,-0.3868 -4.5967,-0.7269 z M 985.98264,1258.0196 C 1190.5922,1159.8554 1358,1079.0386 1358,1078.4267 c 0,-0.6119 -126.6839,-70.2894 -281.5198,-154.839 L 794.96041,769.8612 697.7302,801.3397 600.5,832.81821 600.22539,846.1591 c -0.15104,7.3375 2.21156,140.2409 5.25022,295.3409 3.03866,155.1 5.52474,285.0705 5.52461,288.8233 -1.8e-4,5.5085 0.28549,6.761 1.48242,6.5 0.81546,-0.1778 168.89046,-80.6395 373.5,-178.8037 z M 596.97007,1134.5 c -3.22869,-163.35 -5.89279,-297.1125 -5.92021,-297.25 -0.0274,-0.1375 -0.83736,-0.2464 -1.79986,-0.242 -2.63579,0.012 -464.35942,149.70142 -465.60604,150.94804 -0.77234,0.77234 0.049,2.17983 2.88839,4.94939 22.40154,21.85097 474.93453,440.02007 475.52097,439.41147 0.4329,-0.4493 -1.85456,-134.4669 -5.08325,-297.8169 z m 768.52093,-64.4855 c 0.7049,-1.1405 93.4924,-893.59687 93.5024,-899.33189 0.01,-3.16455 -0.2927,-3.73027 -1.7434,-3.30798 -0.9625,0.28018 -147.775,29.58683 -326.25,65.12589 -178.475,35.53905 -324.87838,64.99102 -325.34084,65.44881 -0.8956,0.88656 -5.84779,406.45008 -5.41533,443.49362 L 800.5,763.3859 1082,917.15797 c 154.825,84.57463 281.8109,153.78783 282.191,153.80703 0.38,0.019 0.965,-0.4085 1.3,-0.9505 z M 356,903.24744 c 128.425,-41.54055 233.83713,-75.82472 234.24917,-76.18703 0.41205,-0.36232 -1.38795,-110.15473 -4,-243.98315 L 581.5,339.75286 311,233.83675 C 162.225,175.58288 39.2625,127.65724 37.75,127.33532 c -1.5125,-0.32193 -2.759815,-0.19157 -2.771811,0.28968 -0.109482,4.39211 81.403471,848.44778 82.105351,850.18982 0.72949,1.81059 1.421,2.16736 3.17455,1.63787 C 121.49114,979.08036 227.575,944.788 356,903.24744 z M 697,792.80093 c 50.875,-16.46307 92.88825,-30.31392 93.36279,-30.77968 0.77379,-0.75948 5.51937,-369.40971 5.60317,-435.27125 L 796,300 l -2.25,0.003 c -3.78484,0.006 -202.05885,39.90541 -203.00513,40.85169 -0.85103,0.85103 7.89449,479.16908 8.81218,481.96382 0.28638,0.87214 1.19699,1.08112 2.68802,0.61689 C 603.48528,823.04971 646.125,809.264 697,792.80093 z m -4.94478,-481.36342 c 56.89463,-11.30938 103.72803,-20.87188 104.07423,-21.25 1.04594,-1.14241 3.31292,-262.145143 2.28582,-263.172236 -0.89558,-0.895583 -747.057157,93.293276 -748.211504,94.447626 -0.295405,0.29541 -0.293237,0.78096 0.0048,1.07902 1.319231,1.31923 533.561684,209.26967 535.846634,209.35861 1.40537,0.0547 49.10537,-9.15365 106,-20.46302 z M 1124.25,225.29338 c 177.2195,-35.31177 314.7462,-63.16932 314.7413,-63.75435 -0.013,-1.54112 -628.81971,-135.110616 -630.08857,-133.841763 -0.66006,0.660065 -1.51299,42.314002 -2.43484,118.909343 -1.87835,156.06884 -1.95953,141.39244 0.78211,141.39773 1.2375,0.002 143.8875,-28.21754 317,-62.71096 z"
       id="path3112"
       inkscape:connector-curvature="0" />
    <path
       style="fill:#535353"
       d="m 608.5778,1446.25 c -0.41554,-0.4125 -1.77241,-0.75 -3.01526,-0.75 -1.59538,0 -17.49124,-14.112 -54.06767,-48 -28.49436,-26.4 -52.29999,-48.4704 -52.9014,-49.0453 -0.60141,-0.5748 -23.36847,-21.651 -50.59347,-46.8358 -27.225,-25.1848 -51.975,-48.1596 -55,-51.0551 -3.025,-2.8955 -24.625,-22.9448 -48,-44.5541 -23.375,-21.6093 -45.44932,-42.0391 -49.05405,-45.3996 -3.60473,-3.3606 -9.45473,-8.7898 -13,-12.065 C 249.57788,1117.7187 177.34465,1050.7452 173,1046.6049 c -3.025,-2.8827 -18.20089,-17.031 -33.72421,-31.4406 -15.52332,-14.4097 -28.63795,-26.97901 -29.14363,-27.93185 -0.97894,-1.84461 -1.59162,-7.57847 -8.62647,-80.73245 -0.79336,-8.25 -3.022764,-31.425 -4.954236,-51.5 -1.931472,-20.075 -5.562414,-57.875 -8.06876,-84 -2.506347,-26.125 -6.567926,-68.425 -9.025731,-94 -7.167682,-74.58421 -9.40661,-97.90782 -11.999261,-125 -1.342156,-14.025 -2.8899,-30 -3.439431,-35.5 -0.549531,-5.5 -1.664225,-16.975 -2.477098,-25.5 -0.812874,-8.525 -3.058247,-31.925 -4.989719,-52 -1.931472,-20.075 -5.562414,-57.875 -8.06876,-84 -2.506347,-26.125 -6.567926,-68.425 -9.025731,-94 -2.457805,-25.575 -5.61124,-58.425 -7.007633,-73 -1.396393,-14.575 -3.407695,-35.25776 -4.46956,-45.96168 -1.869901,-18.84918 -1.873181,-19.52584 -0.104229,-21.5 1.004539,-1.12108 2.104367,-2.82582 2.444062,-3.78832 0.339695,-0.9625 1.194251,-1.75143 1.899012,-1.75318 0.704762,-0.002 10.056385,-1.13638 20.781385,-2.52141 10.725,-1.38502 42.675,-5.44872 71,-9.03044 28.325,-3.581714 58.475,-7.409261 67,-8.505657 16.10635,-2.07143 54.95813,-7.012907 109,-13.863482 57.98545,-7.35048 102.30224,-12.980553 126,-16.007233 12.925,-1.650783 46.9,-5.958251 75.5,-9.572153 28.6,-3.613901 58.975,-7.460284 67.5,-8.547518 8.525,-1.087234 36.875,-4.685715 63,-7.996623 26.125,-3.310909 54.475,-6.916399 63,-8.0122 8.525,-1.095802 36.42973,-4.643369 62.0105,-7.883484 l 46.51051,-5.891117 18.48949,3.982905 c 10.16923,2.190598 25.6895,5.490024 34.4895,7.332058 15.09561,3.159844 29.15334,6.142438 74,15.700394 10.45,2.227159 22.825,4.846459 27.5,5.820665 4.675,0.974207 12.775,2.699293 18,3.833524 21.71084,4.71294 73.7496,15.793747 93,19.802854 4.125,0.859075 10.2,2.140439 13.5,2.847475 8.7534,1.875447 28.2268,6.062836 42,9.0313 6.6,1.422465 20.325,4.335264 30.5,6.472887 10.175,2.137624 23.9,5.063969 30.5,6.502991 6.6,1.439021 16.05,3.443274 21,4.453884 4.95,1.01062 15.3,3.19971 23,4.86466 19.6594,4.25087 59.0383,12.64708 78,16.6308 8.8,1.84882 23.425,4.94287 32.5,6.87567 9.075,1.93279 31.575,6.71522 50,10.62761 18.425,3.9124 39.575,8.42381 47,10.02535 7.425,1.60155 16.3775,3.50086 19.8945,4.22069 4.4187,0.9044 6.736,1.91961 7.5,3.28574 0.608,1.08733 1.7276,2.47487 2.4879,3.08342 1.1704,0.93677 0.9713,5.0811 -1.2984,27.02304 -1.4745,14.25412 -3.796,36.71658 -5.1591,49.91658 -1.363,13.2 -3.1629,30.525 -3.9998,38.5 -0.8369,7.975 -3.0536,29.35 -4.9261,47.5 -1.8724,18.15 -4.7681,46.05 -6.4348,62 -3.6622,35.04649 -4.166,39.90031 -8.5642,82.5 -1.9023,18.425 -3.9335,38 -4.5139,43.5 -0.5803,5.5 -2.591,24.85 -4.4681,43 -1.8772,18.15 -4.331,41.775 -5.4531,52.5 -2.7025,25.83227 -23.6379,227.60042 -26.6143,256.5 -0.8496,8.25 -2.4395,23.55 -3.5329,34 -1.0934,10.45 -3.3079,31.825 -4.921,47.5 -13.4497,130.6956 -13.6104,132.0672 -15.7086,134.1043 C 1369.8138,1082.5357 611.31357,1447 609.80901,1447 c -0.26162,0 -0.81566,-0.3375 -1.23121,-0.75 z M 986,1258.5539 c 203.775,-97.7595 371.1167,-178.3344 371.8704,-179.0553 1.1489,-1.0989 0.7447,-1.7158 -2.5,-3.8156 -2.1287,-1.3776 -50.6704,-28.0318 -107.8704,-59.2315 -57.2,-31.19973 -128.3,-70.00008 -158,-86.22301 C 796.19041,770.01504 796.16274,770 794.7508,770 c -0.69539,0 -44.9013,14.12292 -98.23535,31.38427 l -96.971,31.38426 0.26439,15.86574 c 0.14542,8.72615 0.70003,38.14073 1.23248,65.36573 0.53245,27.225 2.31299,119.25 3.95676,204.5 3.10153,160.8541 4.48491,231.2324 5.62835,286.3381 0.66741,32.1649 0.68226,32.3358 2.77229,31.8992 C 614.55442,1436.4959 782.225,1356.3134 986,1258.5539 z M 602.52983,1412.25 c -0.33988,-11.4125 -1.96371,-91.4 -3.60853,-177.75 -5.63216,-295.67908 -7.74785,-397.65988 -8.26049,-398.17252 -0.28217,-0.28217 -37.33378,11.41363 -82.33692,25.99068 C 463.32075,876.8952 358.775,910.74112 276,937.53131 193.225,964.3215 124.67976,986.66993 123.67724,987.1945 c -1.56968,0.82132 -1.6391,1.22104 -0.5,2.87895 0.72752,1.05886 12.12276,11.85485 25.32276,23.99115 13.2,12.1363 26.925,24.8496 30.5,28.2518 7.37759,7.021 14.53078,13.657 74.5,69.1137 23.65,21.8704 45.475,42.1301 48.5,45.0217 3.025,2.8915 27.775,25.8565 55,51.0333 27.225,25.1768 51.975,48.0927 55,50.9243 3.025,2.8315 27.775,25.7858 55,51.0095 27.225,25.2237 51.75,47.9663 54.5,50.539 44.21796,41.3675 78.97973,73.0421 80.16121,73.0421 1.28754,0 1.40385,-2.7783 0.86862,-20.75 z m 763.80637,-345 c 0.3254,-2.0625 1.9479,-17.025 3.6055,-33.25 1.6576,-16.225 4.3615,-42.325 6.0088,-58 1.6472,-15.675 4.1527,-39.75 5.5678,-53.5 2.7183,-26.41244 6.6956,-64.87412 10.9097,-105.5 2.4554,-23.67179 3.4135,-32.9321 11.0189,-106.5 1.9331,-18.7 3.9737,-38.05 4.5345,-43 0.5608,-4.95 2.1563,-20.25 3.5455,-34 1.3892,-13.75 3.2138,-31.525 4.0546,-39.5 0.8408,-7.975 3.0661,-29.35 4.9452,-47.5 5.7061,-55.11563 8.4022,-81.07594 10.5414,-101.5 1.1234,-10.725 3.1567,-30.3 4.5185,-43.5 1.3618,-13.2 3.1308,-30.3 3.9311,-38 4.2804,-41.18425 6.5488,-63.02817 7.4767,-72 1.3638,-13.18559 5.2069,-50.15919 9.4562,-90.9749 1.8881,-18.13619 3.2698,-33.13801 3.0705,-33.33737 -0.3707,-0.37066 -30.9306,5.66108 -267.5211,52.80168 -317.37882,63.23766 -386.3818,77.05905 -386.79914,77.4764 -0.24272,0.24272 -1.60219,104.86865 -3.02105,232.50207 -2.25345,202.70948 -2.39634,232.24146 -1.12977,233.4894 1.73897,1.7134 -4.50363,-1.73607 109.94996,60.75491 94.5487,51.62302 184.5919,100.79473 322,175.84101 42.625,23.2799 89.2,48.7438 103.5,56.5865 14.3,7.8426 26.73,14.2821 27.6222,14.3098 1.1168,0.035 1.8066,-1.1179 2.214,-3.6995 z M 190.76466,957.08687 c 195.6169,-63.36571 316.89252,-102.63361 355.65413,-115.15744 23.60534,-7.62686 43.3081,-14.25632 43.78392,-14.73214 0.48683,-0.48683 -0.22888,-56.36149 -1.63678,-127.78121 C 587.18989,629.61224 585.0801,520.3 583.87751,456.5 582.67492,392.7 581.37539,340.13738 580.98966,339.69417 580.34565,338.95419 40.926145,127.42962 36.593075,126.21792 34.331926,125.58561 34.214261,123.48932 39.499632,178 c 1.89315,19.525 4.819969,49.9 6.504041,67.5 1.684073,17.6 3.929672,41 4.99022,52 6.712738,69.62451 14.256617,148.11518 17.011786,177 1.101693,11.55 2.667304,27.75 3.479135,36 0.811832,8.25 2.145637,21.975 2.964011,30.5 4.311013,44.90778 8.825834,91.99361 11.554133,120.5 1.684466,17.6 3.930387,41 4.990935,52 7.881227,81.74407 14.741147,153.14273 17.054047,177.5 1.12287,11.825 2.67258,27.8 3.44379,35.5 0.77121,7.7 2.12419,21.875 3.00662,31.5 1.91855,20.92636 2.11548,22 4.03536,22 0.82259,0 33.32652,-10.31091 72.23095,-22.91313 z m 505.36727,-163.6561 c 51.88692,-16.81307 94.51949,-30.74885 94.73903,-30.96839 0.92368,-0.92369 5.48588,-461.5055 4.5803,-462.41009 -0.89316,-0.89219 -203.79661,38.95972 -205.12515,40.28827 -0.30465,0.30465 0.41075,49.29015 1.58977,108.85667 5.79681,292.86485 7.07288,358.9472 7.07827,366.55277 0.005,6.3908 0.32046,8.25 1.40188,8.25 0.76782,0 43.84897,-13.75615 95.7359,-30.56923 z M 628.16477,324.41886 C 693.4524,311.50765 796.46532,290.8717 796.58041,290.68119 796.79902,290.31931 799.04731,64.962402 799.02398,45.75 L 799,26 l -2.25,0.01981 c -1.2375,0.01089 -5.4,0.477117 -9.25,1.036051 -3.85,0.558934 -22.975,3.035709 -42.5,5.503945 -19.525,2.468236 -51.25,6.488694 -70.5,8.93435 -19.25,2.445656 -51.2,6.499241 -71,9.007965 -19.8,2.508724 -48.15,6.111444 -63,8.006044 -14.85,1.8946 -37.8,4.81419 -51,6.487978 -13.2,1.673788 -39.75,5.044587 -59,7.490665 -19.25,2.446078 -53,6.728843 -75,9.517255 -40.47052,5.129477 -49.28576,6.248734 -114,14.474413 -19.8,2.516732 -55.575,7.059004 -79.5,10.093934 -23.925,3.03493 -58.94174,7.47694 -77.814972,9.87113 -18.873234,2.39419 -34.585734,4.62383 -34.916666,4.95477 -0.330933,0.33093 -0.357833,0.84555 -0.05978,1.14361 0.298054,0.29805 120.410558,47.50329 266.916668,104.90053 168.33241,65.94821 267.72361,104.39523 270.03952,104.45808 2.01562,0.0547 20.91562,-3.31204 42,-7.48167 z M 863.5,277.5708 c 54.63564,-10.86017 218.2778,-43.47685 449.75,-89.64288 84.9289,-16.93866 126.75,-25.68063 126.75,-26.49488 0,-0.72613 -3.3202,-1.85899 -8.25,-2.81485 -4.5375,-0.87981 -14.55,-2.96725 -22.25,-4.63876 -7.7,-1.6715 -21.425,-4.58198 -30.5,-6.46772 -9.075,-1.88574 -19.875,-4.17511 -24,-5.08749 -4.125,-0.91237 -10.2,-2.22148 -13.5,-2.90913 -14.7218,-3.0677 -45.4054,-9.64236 -49.4522,-10.59625 -2.4487,-0.5772 -13.0237,-2.84279 -23.5,-5.03464 -21.9993,-4.6027 -55.0686,-11.62042 -74.5478,-15.81998 -12.475,-2.6895 -27.1015,-5.79591 -76,-16.141004 -10.175,-2.152649 -25.7,-5.452897 -34.5,-7.333882 -18.422,-3.937681 -89.26161,-18.979497 -111.5,-23.675503 -2.475,-0.522637 -8.325,-1.8138 -13,-2.86925 -4.675,-1.055451 -12.1,-2.668838 -16.5,-3.585305 -4.4,-0.916467 -12.95,-2.696404 -19,-3.955415 C 907.21944,47.11586 854.07121,35.750507 818,27.943473 c -4.675,-1.011829 -8.86632,-1.474224 -9.31403,-1.027546 -0.6619,0.660352 -3.55356,197.071133 -3.65783,248.450653 -0.0281,13.85744 -0.0267,13.86627 2.22186,13.40231 1.2375,-0.25534 26.55,-5.29448 56.25,-11.19809 z"
       id="path3110"
       inkscape:connector-curvature="0" />
    <path
       style="fill:#2b2b2b"
       d="m 605.90503,1445.1081 c -3.08363,-0.5216 -38.58783,-33.0594 -249.60905,-228.7539 L 110.28191,988.20841 109.65269,982.3542 C 109.30662,979.13439 90.540975,784.13887 67.951251,549.03081 33.569147,191.1907 27.10258,121.39372 28.251484,120.53081 c 0.754852,-0.56694 1.650739,-1.77346 1.990859,-2.68115 0.359457,-0.95929 2.217794,-1.90262 4.438029,-2.25282 C 36.781167,115.26547 210.625,93.140467 421,66.43016 l 382.5,-48.564194 330.1804,70.246783 c 255.8297,54.428481 330.3021,70.600371 330.7209,71.817021 0.2974,0.86362 1.0833,2.30926 1.7466,3.21252 0.9611,1.3088 -1.2787,25.57566 -11.0295,119.5 -6.7296,64.82174 -16.9519,163.30771 -22.7163,218.85771 -50.5679,487.30972 -60.184,578.6771 -60.985,579.4446 -1.3778,1.3202 -759.99177,365.0778 -761.02476,364.9135 -0.49079,-0.078 -2.51008,-0.4156 -4.48731,-0.75 z M 986,1259.0511 c 204.325,-98.0191 372.1167,-178.8122 372.8704,-179.54 1.1514,-1.1118 0.7518,-1.7224 -2.5,-3.8199 -2.1287,-1.3731 -129.3169,-70.9717 -282.6405,-154.66359 L 794.95989,768.86052 700.22994,799.55629 C 648.12847,816.43897 604.0375,830.6665 602.25,831.17304 l -3.25,0.92097 -0.0196,12.70299 c -0.0333,21.62432 11.10205,590.6201 11.58684,592.0665 0.25136,0.7499 1.23905,1.1476 2.19487,0.8838 0.95582,-0.2637 168.91285,-80.677 373.23785,-178.6962 z m -382.64369,174.1814 c 0.71779,-1.1614 -11.04419,-594.91845 -11.80951,-596.15678 -0.36566,-0.59165 -1.42578,-1.07213 -2.35582,-1.06774 -0.93004,0.004 -106.31388,33.88798 -234.18631,75.29688 -165.84799,53.7065 -232.57964,75.72666 -232.78944,76.81604 -0.28645,1.48746 477.90206,445.8791 479.7891,445.8791 0.4827,0 1.09109,-0.3454 1.35198,-0.7675 z m 763.06839,-362.1107 c 0.2985,-0.483 4.3652,-37.9455 9.0371,-83.24998 4.6719,-45.3045 8.9568,-86.42182 9.5221,-91.37182 0.5652,-4.95 14.5339,-139.275 31.0414,-298.5 16.5076,-159.225 30.6671,-295.8 31.4656,-303.5 0.7985,-7.7 3.9614,-38.05505 7.0286,-67.45568 3.0672,-29.40062 5.4426,-55.05062 5.2786,-57 -0.2624,-3.11957 -0.5977,-3.51251 -2.7981,-3.2789 -9.1743,0.97401 -650.75755,129.59595 -651.85785,130.68175 -1.1209,1.10613 -1.80742,41.49839 -3.93418,231.47158 -1.62893,145.50425 -2.2311,231.11332 -1.6375,232.8012 0.79934,2.27289 42.76755,25.51902 282.43423,156.43983 154.8224,84.57362 282.0312,153.78602 282.6863,153.80522 0.655,0.019 1.4352,-0.3602 1.7337,-0.8432 z M 356,904.25253 c 128.425,-41.53777 234.0622,-76.04057 234.74932,-76.67291 1.65351,-1.52165 -7.44893,-486.42765 -9.1643,-488.20185 C 580.31313,338.06227 38.619397,126 36.530951,126 c -0.777104,0 -1.694308,0.4553 -2.038231,1.01178 -1.133409,1.83389 80.65824,849.23792 82.21479,851.78795 1.05166,1.7229 1.95417,2.13372 3.59813,1.63787 C 121.51254,980.07357 227.575,945.79029 356,904.25253 z M 697,793.80601 c 50.875,-16.46027 93.11114,-30.52758 93.8581,-31.2607 1.11977,-1.09902 1.77205,-37.10721 3.71698,-205.18912 2.95682,-255.53095 2.96141,-257.21309 0.7041,-258.0793 -2.37726,-0.91224 -203.3116,39.32696 -205.04755,41.06291 -1.16189,1.16189 -0.6555,38.09937 3.3145,241.76581 3.03432,155.6648 5.04725,240.84292 5.71108,241.66697 0.60298,0.74851 1.89359,1.00256 3.13397,0.61689 C 603.55103,824.02884 646.125,810.26629 697,793.80601 z m -4.94478,-481.36362 c 56.89463,-11.30668 103.95557,-21.09418 104.57987,-21.75 1.50046,-1.57621 4.19533,-263.261971 2.72623,-264.731074 -0.64181,-0.64181 -130.42318,15.457 -375.09315,46.528663 C 218.50669,98.620491 49.638204,120 49.004869,120 41.066445,120 64.500526,129.47965 316,228.00596 c 147.125,57.63703 268.64985,104.83947 270.05522,104.89432 1.40537,0.0548 49.10537,-9.1512 106,-20.45789 z M 1123.5504,226.4875 c 172.6723,-34.38187 315.0306,-62.97842 316.3517,-63.54787 1.6346,-0.70456 2.0759,-1.36166 1.381,-2.05655 -0.9652,-0.96519 -627.8858,-134.872182 -631.47408,-134.879589 -0.93004,-0.0019 -1.96698,0.443081 -2.30431,0.988891 -0.77383,1.252088 -3.84614,258.675478 -3.11014,260.593458 0.29846,0.77779 1.59195,1.41416 2.8744,1.41416 1.28246,0 143.60909,-28.13062 316.28143,-62.5125 z"
       id="path3108"
       inkscape:connector-curvature="0" />
    <path
       style="fill:#090909"
       d="m 492,1341.1969 c -61.325,-56.8721 -138.26756,-128.2198 -170.98346,-158.5504 -61.02353,-56.5743 -81.0207,-75.122 -162.70638,-150.9127 l -47.17029,-43.76613 -0.56813,-5.23384 C 110.25926,979.85523 109.33227,970.3 108.51176,961.5 c -0.82051,-8.8 -1.95511,-20.05 -2.52133,-25 -0.56622,-4.95 -2.1546,-21.375 -3.52973,-36.5 -1.37514,-15.125 -3.628826,-39.2 -5.0082,-53.5 -1.379374,-14.3 -3.392968,-35.225 -4.474652,-46.5 -1.081685,-11.275 -2.43526,-24.775 -3.007943,-30 -0.572684,-5.225 -2.363295,-23.9 -3.979136,-41.5 -1.615841,-17.6 -4.529119,-48.425 -6.473951,-68.5 -1.944832,-20.075 -4.012255,-41.9 -4.594274,-48.5 -0.582019,-6.6 -1.400051,-13.35 -1.817848,-15 -0.417798,-1.65 -0.852863,-5.7 -0.96681,-9 -0.113947,-3.3 -0.635774,-10.5 -1.159614,-16 -0.523841,-5.5 -1.628769,-17.2 -2.455397,-26 -0.826627,-8.8 -1.966229,-20.05 -2.532448,-25 C 65.424209,515.55 63.83583,499.125 62.460696,484 61.085562,468.875 58.831874,444.8 57.4525,430.5 56.073126,416.2 54.059532,395.275 52.977848,384 51.896163,372.725 50.542588,359.225 49.969905,354 49.397221,348.775 47.60661,330.1 45.990769,312.5 44.374928,294.9 41.46165,264.075 39.516818,244 c -1.944832,-20.075 -4.012255,-41.9 -4.594274,-48.5 -0.582019,-6.6 -1.400051,-13.35 -1.817848,-15 -0.417798,-1.65 -0.861566,-5.7 -0.986152,-9 -0.124585,-3.3 -0.882808,-12.975 -1.68494,-21.5 -0.802132,-8.525 -1.735912,-18.46707 -2.075066,-22.09349 -0.51808,-5.53959 -0.356257,-6.69341 1.012409,-7.21861 C 30.266926,120.34408 31,119.39404 31,118.5767 c 0,-2.00218 -13.700894,-0.0635 113.5,-16.06068 33,-4.150194 62.025,-7.962901 64.5,-8.472681 2.475,-0.50978 14.625,-2.083785 27,-3.49779 12.375,-1.414004 33.075,-3.966862 46,-5.673017 12.925,-1.706155 25.3,-3.308167 27.5,-3.560027 2.2,-0.25186 16.375,-2.030451 31.5,-3.952425 15.125,-1.921974 31.1,-3.899773 35.5,-4.39511 4.4,-0.495337 18.575,-2.273003 31.5,-3.950369 12.925,-1.677365 48.25,-6.17554 78.5,-9.995943 110.07851,-13.902289 159.68388,-20.238611 193,-24.652773 18.7,-2.477625 36.025,-4.7301 38.5,-5.005501 2.475,-0.275401 15.3,-1.838619 28.5,-3.473817 13.2,-1.635199 31.56678,-3.90703 40.81506,-5.048514 l 16.81506,-2.075425 12.68494,2.637533 c 6.97672,1.450643 15.83494,3.333002 19.68494,4.18302 3.85,0.850019 14.2,3.056047 23,4.902286 16.66881,3.497113 39.11551,8.264706 63,13.380961 7.7,1.649403 25.7,5.487941 40,8.530085 14.3,3.042144 35.45,7.542893 47,10.001664 11.55,2.458771 23.475,4.982137 26.5,5.60748 3.025,0.625343 10.45,2.215722 16.5,3.534176 11.5695,2.521296 29.3448,6.30826 56,11.930567 8.8,1.856162 22.525,4.792188 30.5,6.524501 7.975,1.732314 18.55,3.962944 23.5,4.956957 14.7632,2.964603 47.5228,9.904512 54.5,11.545442 3.575,0.84079 11.9,2.66707 18.5,4.05839 6.6,1.39132 20.325,4.28309 30.5,6.42614 29.1926,6.14852 84.0516,17.81459 89,18.92632 4.612,1.03615 29.5061,6.3374 50,10.64759 6.325,1.33025 20.725,4.41413 32,6.85308 11.275,2.43894 21.579,4.5822 22.8979,4.76281 1.3188,0.1806 2.8938,1.22837 3.5,2.32837 0.6061,1.1 1.5307,2.30787 2.0546,2.68415 1.1336,0.81427 -0.2321,16.74285 -6.3287,73.81585 -1.6745,15.675 -3.7373,35.025 -4.5842,43 -1.5663,14.74992 -6.0006,58.99743 -6.9149,69 -0.2765,3.025 -2.1138,20.35 -4.0827,38.5 -1.969,18.15 -4.0053,37.5 -4.5251,43 -0.5198,5.5 -1.618,16.075 -2.4403,23.5 -0.8224,7.425 -1.967,18 -2.5437,23.5 -6.4462,61.4785 -9.1299,87.8381 -9.9265,97.5 -0.5214,6.325 -1.6548,17.125 -2.5186,24 -0.8639,6.875 -2.9436,26 -4.6217,42.5 -3.6376,35.7663 -6.4806,63.3463 -12.4732,121 -2.4582,23.65 -4.8885,47.275 -5.4007,52.5 -0.5122,5.225 -2.0786,20.3 -3.4809,33.5 -1.4024,13.2 -3.2416,30.525 -4.0872,38.5 -0.8456,7.975 -3.3414,32.05 -5.5462,53.5 -2.2048,21.45 -4.4439,43.05 -4.9756,48 -0.5318,4.95 -2.0944,20.7 -3.4724,35 -1.378,14.3 -2.9515,29.15 -3.4967,33 -0.5451,3.85 -1.2836,10.4422 -1.641,14.6494 -0.3574,4.2072 -0.9396,8.1184 -1.2939,8.6915 -0.5434,0.8792 -18.3409,10.1591 -19.4838,10.1591 -0.2113,0 -8.6485,3.9892 -18.7493,8.8648 -10.1009,4.8756 -24.2152,11.6712 -31.3652,15.1013 -7.15,3.4301 -19.525,9.3834 -27.5,13.2295 -33.101,15.9638 -38.8455,18.7212 -46,22.0804 -4.125,1.9368 -16.05,7.6665 -26.5,12.7326 -10.45,5.0661 -24.4661,11.8617 -31.1469,15.1013 -6.6808,3.2395 -12.3651,5.8901 -12.6317,5.8901 -0.2666,0 -10.6895,4.9567 -23.1621,11.0149 -12.4726,6.0582 -27.4884,13.2982 -33.3684,16.0888 -5.88,2.7907 -16.7659,8.0096 -24.1909,11.5975 -15.4241,7.4533 -35.5817,17.1261 -48,23.0331 -4.675,2.2238 -15.475,7.414 -24,11.5338 -39.62959,19.1513 -45.02197,21.7319 -45.41073,21.7319 -0.22848,0 -10.46703,4.8853 -22.75234,10.8561 -12.28531,5.9709 -27.73693,13.4463 -34.33693,16.6121 -6.6,3.1658 -18.075,8.6863 -25.5,12.2677 -7.425,3.5815 -19.125,9.1864 -26,12.4553 -24.77399,11.7798 -58.51361,27.9969 -74.64107,35.8767 -6.67759,3.2627 -12.38567,5.9321 -12.68461,5.9321 -0.29895,0 -10.58547,4.8937 -22.85893,10.8749 -42.88045,20.8968 -59.91584,29.1251 -60.29885,29.1251 -0.21226,0 -9.07781,4.206 -19.70123,9.3468 -43.87859,21.233 -48.01359,23.0476 -52.75951,23.1529 L 603.5,1444.6007 492,1341.1969 z m 127.88039,94.3637 c 7.85286,-4.0801 33.86275,-16.5606 34.51308,-16.5606 0.24941,0 10.95041,-5.1082 23.78,-11.3515 12.82959,-6.2433 28.72653,-13.9438 35.32653,-17.1121 6.6,-3.1683 18.075,-8.6909 25.5,-12.2723 7.425,-3.5815 19.125,-9.1864 26,-12.4553 6.875,-3.269 16.55,-7.8812 21.5,-10.2494 4.95,-2.3682 13.95,-6.6718 20,-9.5637 6.05,-2.8919 18.74532,-9.0239 28.21182,-13.6268 9.46651,-4.6029 17.42458,-8.3689 17.68461,-8.3689 0.26004,0 10.51472,-4.8937 22.78818,-10.8749 43.78363,-21.3369 59.91901,-29.1251 60.34085,-29.1251 0.23536,0 8.65091,-3.9936 18.70123,-8.8747 10.05032,-4.8811 20.74831,-10.0062 23.77331,-11.3891 5.08546,-2.3248 26.4726,-12.6553 58.6515,-28.33 7.2333,-3.5234 13.4019,-6.4062 13.7079,-6.4062 0.306,0 10.8128,-4.9883 23.3485,-11.0852 12.5356,-6.0969 28.1921,-13.6754 34.7921,-16.8413 6.6,-3.1658 17.85,-8.5687 25,-12.0064 7.15,-3.4377 16.15,-7.7526 20,-9.5886 21.5862,-10.2941 44.5711,-21.3477 56,-26.9306 7.15,-3.4928 16.15,-7.8083 20,-9.5901 7.0706,-3.2722 27.1389,-12.8465 51,-24.3313 7.15,-3.4414 16.825,-8.0971 21.5,-10.3459 10.8419,-5.2154 42.4404,-20.3656 51.2345,-24.5648 3.704,-1.7687 6.9488,-3.7689 7.2106,-4.4449 0.7045,-1.8187 -4.0219,-4.9416 -23.4451,-15.4915 -9.625,-5.2279 -20.65,-11.2197 -24.5,-13.3152 -3.85,-2.0954 -9.7983,-5.2403 -13.2185,-6.9885 -3.4202,-1.7482 -6.7952,-3.6314 -7.5,-4.1848 -0.7048,-0.5534 -5.1065,-3.0341 -9.7815,-5.5127 -4.675,-2.4786 -20.1126,-10.8676 -34.3058,-18.6424 -14.1931,-7.7747 -25.9411,-14.1358 -26.1065,-14.1358 -0.1654,0 -4.1676,-2.22509 -8.8937,-4.94464 -4.7262,-2.71956 -14.3532,-7.9537 -21.3935,-11.63144 -7.0403,-3.67773 -15.2755,-8.09434 -18.3005,-9.81469 -3.025,-1.72034 -6.85,-3.87503 -8.5,-4.78819 -16.4855,-9.12359 -22.7083,-12.53711 -27.9109,-15.31072 -3.349,-1.7854 -12.7084,-6.90561 -20.7987,-11.37825 C 1107.7001,938.65943 1100.8713,935 1100.6153,935 c -0.3883,0 -11.375,-5.99266 -24.1446,-13.16962 -3.2096,-1.80393 -18.8714,-10.44915 -26.9707,-14.88771 -2.75,-1.50705 -9.5996,-5.26067 -15.2212,-8.34138 C 1028.6571,895.52058 1023.7425,893 1023.3575,893 c -0.385,0 -1.4105,-0.63147 -2.2788,-1.40327 -0.8683,-0.77179 -6.2445,-3.80929 -11.9471,-6.75 -5.7026,-2.9407 -11.10262,-5.79851 -12,-6.35068 -2.35103,-1.44662 -15.39321,-8.61714 -24.1316,-13.26743 -4.125,-2.19519 -9.975,-5.39363 -13,-7.10764 -3.025,-1.71401 -8.65,-4.74204 -12.5,-6.72895 -3.85,-1.98691 -9.475,-5.0844 -12.5,-6.88331 -3.025,-1.79891 -9.325,-5.26687 -14,-7.70658 -4.675,-2.43971 -10.75,-5.70989 -13.5,-7.26707 -14.36687,-8.13519 -18.93702,-10.65458 -22.7817,-12.55892 -7.21676,-3.57458 -14.51305,-7.56186 -15.89486,-8.68625 -0.72789,-0.59229 -5.37344,-3.16904 -10.32344,-5.7261 -4.95,-2.55707 -12.15,-6.42296 -16,-8.59088 -3.85,-2.16792 -9.25,-5.05561 -12,-6.41709 -2.75,-1.36148 -7.025,-3.68018 -9.5,-5.15267 -2.475,-1.47248 -7.36807,-4.23099 -10.87349,-6.13 -3.50543,-1.89902 -7.78043,-4.31067 -9.5,-5.35922 -1.71958,-1.04856 -4.26507,-1.90815 -5.65665,-1.9102 -2.25981,-0.003 -57.74406,17.69244 -161.87104,51.62606 l -35.40118,11.53679 0.69222,40.1667 c 0.38073,22.09169 2.23867,120.04171 4.12876,217.66671 1.89009,97.625 4.14233,215.075 5.00497,261 0.86264,45.925 1.7813,84.5125 2.04147,85.75 0.64349,3.0607 2.56083,2.8397 10.31533,-1.1894 z m -15.60381,-2.5102 c 0.28041,-1.0723 -0.28563,-41.4598 -1.25788,-89.75 -0.97224,-48.2902 -2.04475,-103.1004 -2.38336,-121.8004 -1.56993,-86.7016 -4.86094,-251.01829 -6.16875,-308 -0.79527,-34.65 -1.42603,-65.18843 -1.40167,-67.86317 C 593.12757,838.75629 592.13299,835 590.24854,835 588.70634,835 574.80549,839.45632 426,887.65466 276.07908,936.21429 250.31164,944.55618 188.5,964.5424 c -35.2,11.38159 -64.7875,21.10649 -65.75,21.61089 -0.9625,0.50439 -1.75,1.50233 -1.75,2.21764 0,1.50596 -2.35423,-0.70821 107.5,101.10497 46.2,42.8182 98.4,91.2071 116,107.5307 100.56856,93.2755 135.44349,125.6167 165.51871,153.4934 18.39465,17.05 46.41177,43.0375 62.26029,57.75 15.84851,14.7125 29.41673,26.75 30.15161,26.75 0.73487,0 1.56555,-0.8773 1.84597,-1.9496 z M 1366.8653,1071.25 c 1.0482,-1.9606 4.4104,-32.7193 16.6425,-152.25 1.3226,-12.925 3.5626,-34.525 4.9777,-48 1.4152,-13.475 3.2231,-30.8 4.0177,-38.5 0.7946,-7.7 3.2644,-31.55 5.4885,-53 6.4087,-61.80945 10.3033,-99.85295 11.3121,-110.5 0.379,-4.00023 3.6301,-34.69447 8.1556,-77 2.1884,-20.45733 6.2894,-62.15769 6.9439,-70.60803 0.3028,-3.90941 0.7702,-7.73441 1.0388,-8.5 0.4982,-1.42045 1.9818,-15.4167 5.5003,-51.89197 1.0876,-11.275 2.4561,-24.325 3.041,-29 0.585,-4.675 2.1878,-19.525 3.5619,-33 1.3741,-13.475 3.3883,-33.05 4.4759,-43.5 1.0877,-10.45 3.087,-30.025 4.443,-43.5 1.3559,-13.475 3.1657,-30.8 4.0217,-38.5 C 1454.3492,238.7474 1461,173.1065 1461,169.72999 c 0,-4.26945 -0.2328,-4.33454 -9.5663,-2.67491 -10.2413,1.82103 -272.7529,54.03807 -276.4337,54.98633 -1.925,0.49592 -9.8,2.07373 -17.5,3.50625 -7.7,1.43251 -16.925,3.2576 -20.5,4.05576 -6.031,1.34649 -36.7195,7.50797 -47,9.43645 -71.8151,13.47143 -285.23752,56.72641 -286.00309,57.96514 -0.427,0.69089 -1.05134,13.4599 -1.38744,28.37557 -0.95937,42.57633 -4.84634,414.86753 -4.4578,426.96592 0.40462,12.59913 0.11852,12.19487 13.5548,19.1535 4.24794,2.2 11.42906,6.11259 15.95804,8.69464 4.52899,2.58206 13.99474,7.7037 21.035,11.38144 7.04027,3.67773 15.27549,8.09434 18.30049,9.81469 3.025,1.72034 6.85,3.87503 8.5,4.78819 16.48554,9.12359 22.70827,12.53711 27.91092,15.31072 3.34899,1.7854 12.70841,6.90561 20.79871,11.37825 8.09029,4.47264 14.91908,8.13207 15.17508,8.13207 0.38833,0 11.37501,5.99266 24.14461,13.16962 3.20963,1.80393 18.87138,10.44915 26.97068,14.88771 2.75,1.50705 9.5996,5.26067 15.2212,8.34138 5.6217,3.08071 10.5363,5.60129 10.9213,5.60129 0.385,0 1.4105,0.63147 2.2788,1.40327 0.8683,0.77179 6.2445,3.80929 11.9471,6.75 5.7026,2.9407 11.1026,5.79851 12,6.35068 2.351,1.44662 15.3932,8.61714 24.1316,13.26743 4.125,2.19519 9.975,5.39363 13,7.10764 3.025,1.71401 8.65,4.74204 12.5,6.72895 3.85,1.98691 9.475,5.0844 12.5,6.88331 3.025,1.79891 9.325,5.26687 14,7.70658 4.675,2.43971 10.75,5.70989 13.5,7.26707 14.3669,8.13519 18.937,10.65458 22.7817,12.55892 7.2168,3.57458 14.513,7.56186 15.8949,8.68625 0.7279,0.59229 5.3734,3.16904 10.3234,5.7261 4.95,2.55707 12.15,6.42296 16,8.59088 3.85,2.16792 9.25,5.05561 12,6.41709 2.75,1.36148 7.025,3.68018 9.5,5.15267 5.3705,3.19513 15.4041,8.73736 23,12.70436 13.0927,6.8378 15.9277,8.3937 17.1766,9.4265 0.7279,0.6019 5.4867,3.2719 10.5751,5.9334 5.0884,2.6614 11.6451,6.1889 14.5704,7.8389 2.9252,1.65 8.5145,4.6756 12.4206,6.7234 3.906,2.0479 8.8244,4.7246 10.9296,5.9482 4.8677,2.8291 14.2515,7.968 21.3277,11.6798 5.3814,2.8228 8.328,4.4327 20.5,11.2003 7.8676,4.3744 14.8219,7.878 15.7148,7.917 0.3932,0.017 1.1359,-0.7562 1.6505,-1.7187 z M 191.8006,958.07847 c 94.48687,-30.6337 302.20662,-97.89379 355.61819,-115.14992 23.60534,-7.62637 43.40534,-14.35747 44,-14.958 0.72774,-0.73491 0.9978,-8.67297 0.82608,-24.28121 -0.264,-23.99591 -3.56042,-200.7526 -5.23471,-280.68934 -0.52415,-25.025 -1.44733,-75.65 -2.0515,-112.5 -0.60418,-36.85 -1.30615,-68.03454 -1.55993,-69.29897 -0.50792,-2.5307 -2.42974,-3.5068 -21.39873,-10.86863 -27.375,-10.62417 -37.89383,-14.73318 -61,-23.8286 -13.475,-5.30425 -27.2,-10.66677 -30.5,-11.91671 -3.3,-1.24993 -21.75,-8.45659 -41,-16.01479 -19.25,-7.55819 -40.175,-15.76545 -46.5,-18.23833 -23.66136,-9.2509 -28.96918,-11.3334 -48,-18.83262 -10.725,-4.22625 -24.225,-9.50734 -30,-11.73573 -5.775,-2.2284 -13.65,-5.26972 -17.5,-6.75848 -3.85,-1.48876 -27.925,-10.91419 -53.5,-20.94541 -25.575,-10.03122 -50.325,-19.73088 -55,-21.55479 -4.675,-1.82392 -17.725,-6.93878 -29,-11.36637 -11.275,-4.42758 -30.4,-11.92423 -42.5,-16.65921 -32.614677,-12.76281 -51.976938,-20.36558 -61.444326,-24.12668 -9.699936,-3.8535 -11.688228,-4.08776 -12.517533,-1.47485 -0.328149,1.0339 0.08113,8.5714 0.909515,16.75 1.537494,15.17964 5.02253,51.26291 8.58336,88.87017 1.093608,11.55 2.430555,24.825 2.970994,29.5 0.54044,4.675 1.906389,18.85 3.035443,31.5 1.129054,12.65 3.592753,38.975 5.474887,58.5 1.882134,19.525 4.1318,42.925 4.999257,52 0.867457,9.075 2.043727,20.325 2.613934,25 0.570207,4.675 1.053004,9.175 1.072883,10 0.01988,0.825 0.885274,10.725 1.923101,22 1.037827,11.275 2.32978,25.45 2.871006,31.5 0.541227,6.05 1.431071,14.6 1.977433,19 0.546361,4.4 1.480655,13.85 2.076208,21 0.595554,7.15 1.718409,19.525 2.495234,27.5 2.011845,20.65389 6.162213,63.91938 8.48962,88.5 1.093608,11.55 2.430555,24.825 2.970994,29.5 0.54044,4.675 1.906389,18.85 3.035443,31.5 1.129054,12.65 3.592753,38.975 5.474887,58.5 1.882134,19.525 4.1318,42.925 4.999257,52 0.867453,9.075 2.043723,20.325 2.613933,25 0.57021,4.675 1.053,9.175 1.07288,10 0.0199,0.825 0.88528,10.725 1.92311,22 1.03782,11.275 2.32978,25.45 2.871,31.5 0.54123,6.05 1.43768,14.6 1.99212,19 0.55444,4.4 1.71791,16.55 2.58549,27 1.9574,23.57677 2.62136,26.5 6.01901,26.5 1.38163,0 34.32679,-10.31469 73.21146,-22.92153 z M 697.11488,794.4416 c 51.88439,-16.80711 94.50751,-30.73066 94.71806,-30.9412 1.25003,-1.25004 2.32709,-64.07168 4.29489,-250.50672 1.21622,-115.22848 1.90142,-210.74098 1.52268,-212.25 C 797.16962,298.82763 796.32013,298 794.83437,298 c -2.00495,0 -200.38169,39.45675 -204.04963,40.58508 -0.9518,0.29279 -1.97959,1.94913 -2.30913,3.72128 -0.32662,1.7565 0.0438,32.89364 0.82309,69.19364 0.77932,36.3 1.69335,81.975 2.03117,101.5 2.23631,129.25028 5.81155,306.02556 6.24441,308.75 0.41239,2.59569 0.98835,3.25 2.86085,3.25 1.28948,0 44.79536,-13.75128 96.67975,-30.5584 z M 620.86776,327.34044 c 128.17371,-25.3798 176.46763,-35.26509 177.07334,-36.24513 0.71741,-1.1608 3.42846,-237.911322 2.92486,-255.42162 -0.22138,-7.697152 -0.62237,-10.008142 -1.85064,-10.665489 -0.92592,-0.495539 -10.77089,0.360258 -24.04167,2.089881 C 762.61314,28.709065 725.725,33.409309 693,37.543069 566.047,53.579529 504.27289,61.453385 421.5,72.149021 c -25.85,3.34025 -48.8,6.280907 -51,6.534792 -2.2,0.253885 -16.375,2.034133 -31.5,3.956107 -15.125,1.921974 -31.28364,3.915096 -35.90809,4.42916 -4.62446,0.514064 -18.79946,2.29013 -31.5,3.946813 C 249.28033,93.926256 161.84483,105.0058 85.5,114.59687 c -35.665002,4.48053 -41.750395,5.7668 -38.957143,8.2344 0.526429,0.46505 7.707143,3.45868 15.957143,6.6525 8.25,3.19383 26.925,10.4798 41.5,16.19105 14.575,5.71125 32.125,12.58343 39,15.2715 6.875,2.68807 20.15,7.90232 29.5,11.58722 9.35,3.68489 20.825,8.15902 25.5,9.9425 7.46121,2.84639 34.20106,13.30622 96,37.55233 9.625,3.77625 25.15,9.85317 34.5,13.50425 9.35,3.65107 23.3,9.12882 31,12.17276 7.7,3.04394 17.825,6.9922 22.5,8.77389 7.46032,2.84322 33.78762,13.14078 96,37.5491 9.625,3.77625 25.15,9.85172 34.5,13.50102 35.79435,13.97055 53.3325,20.85861 62.5,24.54672 5.225,2.10202 10.11549,3.84482 10.86776,3.87288 0.75226,0.0281 16.50226,-2.94579 35,-6.60855 z m 326.1108,-64.90897 C 1023.1654,247.26877 1087.075,234.45658 1089,233.95992 c 1.925,-0.49665 9.8,-2.07099 17.5,-3.49852 7.7,-1.42753 16.7,-3.21421 20,-3.97041 3.3,-0.7562 12.3,-2.5562 20,-4 7.7,-1.4438 16.7,-3.23151 20,-3.97269 3.3,-0.74117 8.7,-1.83193 12,-2.4239 27.7356,-4.97539 263.2951,-52.52712 264.3002,-53.35355 2.5535,-2.09957 -1.2158,-3.46089 -21.3002,-7.69277 -30.6452,-6.45707 -47.315,-9.9618 -55,-11.5634 -3.85,-0.80237 -13.3,-2.8326 -21,-4.51163 -13.8617,-3.02263 -27.7202,-5.96477 -65.5,-13.90556 -10.725,-2.25425 -23.3352,-4.97436 -28.0226,-6.0447 -4.6874,-1.07033 -16.4398,-3.52938 -26.1164,-5.46455 -9.6766,-1.93517 -18.2165,-3.74634 -18.9774,-4.02481 -0.761,-0.27848 -7.9086,-1.87966 -15.8836,-3.55819 -27.9099,-5.8743 -51.617,-10.889792 -65.5,-13.857242 C 1070.3772,80.335649 1021.0683,69.857426 1007.5,67.042806 995.57723,64.569535 967.2948,58.508718 953.20054,55.406639 946.98583,54.038812 934.49767,51.36593 925.44907,49.4669 897.76731,43.657329 877.85203,39.434568 845.5,32.514796 828.45,28.867974 812.93494,25.797763 811.02209,25.692105 807.63703,25.505129 807.52433,25.620135 806.80084,30 c -0.94343,5.711261 -4.1278,252.37669 -3.31457,256.75 0.46298,2.48972 1.11509,3.25 2.78761,3.25 1.20078,0 64.51789,-12.40584 140.70468,-27.56853 z"
       id="path3106"
       inkscape:connector-curvature="0" />
  </g>
</svg>
