<?xml version="1.0" encoding="UTF-8" standalone="no"?>
<!-- Creator: fig2dev Version 3.2 Patchlevel 5a -->

<!-- CreationDate: Tue Dec 14 14:43:18 2010 -->

<!-- Magnification: 1.050 -->

<svg
   xmlns:ns0="http://www.iki.fi/pav/software/textext/"
   xmlns:dc="http://purl.org/dc/elements/1.1/"
   xmlns:cc="http://creativecommons.org/ns#"
   xmlns:rdf="http://www.w3.org/1999/02/22-rdf-syntax-ns#"
   xmlns:svg="http://www.w3.org/2000/svg"
   xmlns="http://www.w3.org/2000/svg"
   xmlns:xlink="http://www.w3.org/1999/xlink"
   xmlns:sodipodi="http://sodipodi.sourceforge.net/DTD/sodipodi-0.dtd"
   xmlns:inkscape="http://www.inkscape.org/namespaces/inkscape"
   width="3.0in"
   height="1.9in"
   viewBox="3070 3461 3622 2328"
   id="svg3696"
   version="1.1"
   inkscape:version="0.47 r22583"
   sodipodi:docname="ink_ext_XXXXXX.svgE00ENV">
  <sodipodi:namedview
     pagecolor="#ffffff"
     bordercolor="#666666"
     borderopacity="1"
     objecttolerance="10"
     gridtolerance="10"
     guidetolerance="10"
     inkscape:pageopacity="0"
     inkscape:pageshadow="2"
     inkscape:window-width="1280"
     inkscape:window-height="968"
     id="namedview3760"
     showgrid="false"
     inkscape:zoom="1.7304505"
     inkscape:cx="30.921365"
     inkscape:cy="211.26623"
     inkscape:window-x="0"
     inkscape:window-y="0"
     inkscape:window-maximized="1"
     inkscape:current-layer="svg3696" />
  <metadata
     id="metadata3764">
    <rdf:RDF>
      <cc:Work
         rdf:about="">
        <dc:format>image/svg+xml</dc:format>
        <dc:type
           rdf:resource="http://purl.org/dc/dcmitype/StillImage" />
        <dc:title></dc:title>
      </cc:Work>
    </rdf:RDF>
  </metadata>
  <defs
     id="defs3762">
    <inkscape:perspective
       id="perspective3766"
       inkscape:persp3d-origin="135 : 57 : 1"
       inkscape:vp_z="270 : 85.5 : 1"
       inkscape:vp_y="0 : 1000 : 0"
       inkscape:vp_x="0 : 85.5 : 1"
       sodipodi:type="inkscape:persp3d" />
  </defs>
  <polyline
     points="3307,5574 4157,4818 "
     style="fill:none;stroke:#000000;stroke-width:8;stroke-linecap:butt;stroke-linejoin:miter"
     id="polyline3700" />
  <polyline
     points="5196,5574 6614,5574 6614,3685 5196,5574 "
     style="fill:none;stroke:#000000;stroke-width:8;stroke-linecap:butt;stroke-linejoin:miter"
     id="polyline3702" />
  <polyline
     points="4818,3496 4818,3779 5196,3779 4818,3496 "
     style="fill:none;stroke:#000000;stroke-width:8;stroke-linecap:butt;stroke-linejoin:miter"
     id="polyline3704" />
  <polyline
     points="4724,3779 4157,4264 "
     style="fill:none;stroke:#000000;stroke-width:8;stroke-linecap:butt;stroke-linejoin:miter"
     id="polyline3706" />
  <polygon
     points="4205,4263 4161,4260 4164,4215 4164,4215 4066,4342 "
     style="fill:#000000;stroke:#000000;stroke-width:8;stroke-miterlimit:8"
     id="polygon3708" />
  <polyline
     points="4913,4062 4585,4797 "
     style="fill:none;stroke:#000000;stroke-width:8;stroke-linecap:butt;stroke-linejoin:miter"
     id="polyline3710" />
  <polygon
     points="4628,4776 4586,4792 4571,4750 4571,4750 4536,4908 "
     style="fill:#000000;stroke:#000000;stroke-width:8;stroke-miterlimit:8"
     id="polygon3712" />
  <polyline
     points="5196,3874 5762,4359 "
     style="fill:none;stroke:#000000;stroke-width:8;stroke-linecap:butt;stroke-linejoin:miter"
     id="polyline3714" />
  <polygon
     points="5754,4309 5757,4353 5713,4358 5713,4358 5854,4436 "
     style="fill:#000000;stroke:#000000;stroke-width:8;stroke-miterlimit:8"
     id="polygon3716" />
  <polyline
     points="3307,3685 3307,5574 4724,5574 3307,3685 "
     style="fill:none;stroke:#000000;stroke-width:8;stroke-linecap:butt;stroke-linejoin:miter"
     id="polyline3718" />
  <text
     xml:space="preserve"
     x="3590"
     y="5102"
     font-style="italic"
     font-weight="normal"
     font-size="114"
     id="text3720"
     style="font-size:114px;font-style:italic;font-weight:normal;text-anchor:start;fill:#000000;stroke-width:0.025in;font-family:Times">ab</text>
  <text
     xml:space="preserve"
     x="4661"
     y="3685"
     font-style="italic"
     font-weight="normal"
     font-size="114"
     id="text3722"
     style="font-size:114px;font-style:italic;font-weight:normal;text-anchor:start;fill:#000000;stroke-width:0.025in;font-family:Times">a</text>
  <text
     xml:space="preserve"
     x="3086"
     y="4692"
     font-style="italic"
     font-weight="normal"
     font-size="114"
     id="text3724"
     style="font-size:114px;font-style:italic;font-weight:normal;text-anchor:start;fill:#000000;stroke-width:0.025in;font-family:Times">bc</text>
  <text
     xml:space="preserve"
     x="3748"
     y="4220"
     font-style="italic"
     font-weight="normal"
     font-size="114"
     id="text3726"
     style="font-size:114px;font-style:italic;font-weight:normal;text-anchor:start;fill:#000000;stroke-width:0.025in;font-family:Times">b<tspan
   font-size="76"
   dy="-52"
   id="tspan3728"
   style="font-size:76px">2</tspan><tspan
   dy="52"
   id="tspan3730" /></text>
  <text
     xml:space="preserve"
     x="3748"
     y="5732"
     font-style="italic"
     font-weight="normal"
     font-size="114"
     id="text3734"
     style="font-size:114px;font-style:italic;font-weight:normal;text-anchor:start;fill:#000000;stroke-width:0.025in;font-family:Times">ac</text>
  <text
     xml:space="preserve"
     x="5700"
     y="5732"
     font-style="italic"
     font-weight="normal"
     font-size="114"
     id="text3736"
     style="font-size:114px;font-style:italic;font-weight:normal;text-anchor:start;fill:#000000;stroke-width:0.025in;font-family:Times">ac</text>
  <text
     xml:space="preserve"
     x="4944"
     y="3905"
     font-style="italic"
     font-weight="normal"
     font-size="114"
     id="text3738"
     style="font-size:114px;font-style:italic;font-weight:normal;text-anchor:start;fill:#000000;stroke-width:0.025in;font-family:Times">b</text>
  <text
     xml:space="preserve"
     x="5007"
     y="3590"
     font-style="italic"
     font-weight="normal"
     font-size="114"
     id="text3740"
     style="font-size:114px;font-style:italic;font-weight:normal;text-anchor:start;fill:#000000;stroke-width:0.025in;font-family:Times">c</text>
  <text
     xml:space="preserve"
     x="4472"
     y="5165"
     font-style="italic"
     font-weight="normal"
     font-size="114"
     id="text3742"
     style="font-size:114px;font-style:italic;font-weight:normal;text-anchor:start;fill:#000000;stroke-width:0.025in;font-family:Times">a<tspan
   font-size="76"
   dy="-52"
   id="tspan3744"
   style="font-size:76px">2</tspan><tspan
   dy="52"
   id="tspan3746" /></text>
  <text
     xml:space="preserve"
     x="5543"
     y="4850"
     font-style="italic"
     font-weight="normal"
     font-size="114"
     id="text3748"
     style="font-size:114px;font-style:italic;font-weight:normal;text-anchor:start;fill:#000000;stroke-width:0.025in;font-family:Times">c<tspan
   font-size="76"
   dy="-52"
   id="tspan3750"
   style="font-size:76px">2</tspan><tspan
   dy="52"
   id="tspan3752" /></text>
  <text
     xml:space="preserve"
     x="6677"
     y="4629"
     font-style="italic"
     font-weight="normal"
     font-size="114"
     id="text3754"
     style="font-size:114px;font-style:italic;font-weight:normal;text-anchor:start;fill:#000000;stroke-width:0.025in;font-family:Times">bc</text>
  <g
     id="g5733"
     ns0:preamble=""
     ns0:text="$\\times b$"
     transform="matrix(16,0,0,16,629.58947,1867.6622)">
    <defs
       id="defs5735">
      <g
         id="g5737">
        <symbol
           id="textext-3f1b2640-0"
           overflow="visible"
           style="overflow:visible">
          <path
             id="path5740"
             d=""
             style="stroke:none" />
        </symbol>
        <symbol
           id="textext-3f1b2640-1"
           overflow="visible"
           style="overflow:visible">
          <path
             id="path5743"
             d="M 3.875,-2.765625 1.890625,-4.75 C 1.765625,-4.875 1.75,-4.890625 1.671875,-4.890625 1.5625,-4.890625 1.46875,-4.8125 1.46875,-4.6875 c 0,0.0625 0.015625,0.078125 0.125,0.1875 l 2,2 -2,2.015625 c -0.109375,0.109375 -0.125,0.125 -0.125,0.1875 0,0.125 0.09375,0.203125 0.203125,0.203125 0.078125,0 0.09375,-0.015625 0.21875,-0.140625 L 3.875,-2.21875 l 2.0625,2.0625 c 0.015625,0.015625 0.078125,0.0625 0.140625,0.0625 0.125,0 0.203125,-0.078125 0.203125,-0.203125 0,-0.015625 0,-0.046875 -0.03125,-0.109375 C 6.234375,-0.421875 4.65625,-1.984375 4.15625,-2.5 l 1.828125,-1.8125 c 0.046875,-0.0625 0.203125,-0.1875 0.25,-0.25 0,-0.015625 0.046875,-0.0625 0.046875,-0.125 0,-0.125 -0.078125,-0.203125 -0.203125,-0.203125 C 6,-4.890625 5.96875,-4.859375 5.859375,-4.75 L 3.875,-2.765625 z m 0,0"
             style="stroke:none" />
        </symbol>
        <symbol
           id="textext-3f1b2640-2"
           overflow="visible"
           style="overflow:visible">
          <path
             id="path5746"
             d=""
             style="stroke:none" />
        </symbol>
        <symbol
           id="textext-3f1b2640-3"
           overflow="visible"
           style="overflow:visible">
          <path
             id="path5749"
             d="m 2.375,-6.8125 c 0,0 0,-0.109375 -0.125,-0.109375 -0.21875,0 -0.953125,0.078125 -1.21875,0.109375 -0.078125,0 -0.1875,0.015625 -0.1875,0.1875 0,0.125 0.09375,0.125 0.25,0.125 0.46875,0 0.484375,0.0625 0.484375,0.171875 0,0.0625 -0.078125,0.40625 -0.125,0.609375 l -0.828125,3.25 c -0.109375,0.5 -0.15625,0.671875 -0.15625,1.015625 0,0.9375 0.53125,1.5625 1.265625,1.5625 1.171875,0 2.40625,-1.484375 2.40625,-2.921875 0,-0.90625 -0.53125,-1.59375 -1.328125,-1.59375 -0.453125,0 -0.875,0.296875 -1.171875,0.59375 l 0.734375,-3 z M 1.453125,-3.046875 C 1.5,-3.265625 1.5,-3.28125 1.59375,-3.390625 2.078125,-4.03125 2.53125,-4.1875 2.796875,-4.1875 c 0.359375,0 0.625,0.296875 0.625,0.9375 0,0.59375 -0.328125,1.734375 -0.515625,2.109375 -0.328125,0.671875 -0.78125,1.03125 -1.171875,1.03125 -0.34375,0 -0.671875,-0.265625 -0.671875,-1 0,-0.203125 0,-0.390625 0.15625,-1.015625 l 0.234375,-0.921875 z m 0,0"
             style="stroke:none" />
        </symbol>
      </g>
    </defs>
    <g
       id="textext-3f1b2640-4">
      <g
         id="g5752"
         style="fill:#000000;fill-opacity:1">
        <use
           id="use5754"
           y="134.765"
           x="223.43201"
           xlink:href="#textext-3f1b2640-1"
           width="3622"
           height="2328" />
      </g>
      <g
         id="g5756"
         style="fill:#000000;fill-opacity:1">
        <use
           id="use5758"
           y="134.765"
           x="231.181"
           xlink:href="#textext-3f1b2640-3"
           width="3622"
           height="2328" />
      </g>
    </g>
  </g>
  <g
     transform="matrix(16,0,0,16,902.91036,2320.4683)"
     ns0:text="$\\times a$"
     ns0:preamble=""
     id="g5854">
    <defs
       id="defs5856">
      <g
         id="g5858">
        <symbol
           style="overflow:visible"
           overflow="visible"
           id="textext-7d36f830-0">
          <path
             style="stroke:none"
             d=""
             id="path5861" />
        </symbol>
        <symbol
           style="overflow:visible"
           overflow="visible"
           id="textext-7d36f830-1">
          <path
             style="stroke:none"
             d="M 3.875,-2.765625 1.890625,-4.75 C 1.765625,-4.875 1.75,-4.890625 1.671875,-4.890625 1.5625,-4.890625 1.46875,-4.8125 1.46875,-4.6875 c 0,0.0625 0.015625,0.078125 0.125,0.1875 l 2,2 -2,2.015625 c -0.109375,0.109375 -0.125,0.125 -0.125,0.1875 0,0.125 0.09375,0.203125 0.203125,0.203125 0.078125,0 0.09375,-0.015625 0.21875,-0.140625 L 3.875,-2.21875 l 2.0625,2.0625 c 0.015625,0.015625 0.078125,0.0625 0.140625,0.0625 0.125,0 0.203125,-0.078125 0.203125,-0.203125 0,-0.015625 0,-0.046875 -0.03125,-0.109375 C 6.234375,-0.421875 4.65625,-1.984375 4.15625,-2.5 l 1.828125,-1.8125 c 0.046875,-0.0625 0.203125,-0.1875 0.25,-0.25 0,-0.015625 0.046875,-0.0625 0.046875,-0.125 0,-0.125 -0.078125,-0.203125 -0.203125,-0.203125 C 6,-4.890625 5.96875,-4.859375 5.859375,-4.75 L 3.875,-2.765625 z m 0,0"
             id="path5864" />
        </symbol>
        <symbol
           style="overflow:visible"
           overflow="visible"
           id="textext-7d36f830-2">
          <path
             style="stroke:none"
             d=""
             id="path5867" />
        </symbol>
        <symbol
           style="overflow:visible"
           overflow="visible"
           id="textext-7d36f830-3">
          <path
             style="stroke:none"
             d="M 3.71875,-3.765625 C 3.53125,-4.140625 3.25,-4.40625 2.796875,-4.40625 c -1.15625,0 -2.390625,1.46875 -2.390625,2.921875 0,0.9375 0.546875,1.59375 1.3125,1.59375 0.203125,0 0.703125,-0.046875 1.296875,-0.75 0.078125,0.421875 0.4375,0.75 0.90625,0.75 0.359375,0 0.578125,-0.234375 0.75,-0.546875 0.15625,-0.359375 0.296875,-0.96875 0.296875,-0.984375 0,-0.109375 -0.09375,-0.109375 -0.125,-0.109375 -0.09375,0 -0.109375,0.046875 -0.140625,0.1875 -0.171875,0.640625 -0.34375,1.234375 -0.75,1.234375 -0.28125,0 -0.296875,-0.265625 -0.296875,-0.453125 0,-0.21875 0.015625,-0.3125 0.125,-0.75 C 3.890625,-1.71875 3.90625,-1.828125 4,-2.203125 L 4.359375,-3.59375 c 0.0625,-0.28125 0.0625,-0.296875 0.0625,-0.34375 0,-0.171875 -0.109375,-0.265625 -0.28125,-0.265625 -0.25,0 -0.390625,0.21875 -0.421875,0.4375 z M 3.078125,-1.1875 C 3.015625,-1 3.015625,-0.984375 2.875,-0.8125 2.4375,-0.265625 2.03125,-0.109375 1.75,-0.109375 c -0.5,0 -0.640625,-0.546875 -0.640625,-0.9375 0,-0.5 0.3125,-1.71875 0.546875,-2.1875 0.3125,-0.578125 0.75,-0.953125 1.15625,-0.953125 0.640625,0 0.78125,0.8125 0.78125,0.875 0,0.0625 -0.015625,0.125 -0.03125,0.171875 L 3.078125,-1.1875 z m 0,0"
             id="path5870" />
        </symbol>
      </g>
    </defs>
    <g
       id="textext-7d36f830-4">
      <g
         style="fill:#000000;fill-opacity:1"
         id="g5873">
        <use
           height="2328"
           width="3622"
           xlink:href="#textext-7d36f830-1"
           x="223.43201"
           y="134.765"
           id="use5875" />
      </g>
      <g
         style="fill:#000000;fill-opacity:1"
         id="g5877">
        <use
           height="2328"
           width="3622"
           xlink:href="#textext-7d36f830-3"
           x="231.181"
           y="134.765"
           id="use5879" />
      </g>
    </g>
  </g>
  <g
     id="g6007"
     ns0:preamble=""
     ns0:text="$\\times c$"
     transform="matrix(16,0,0,16,1928.535,1932.3175)">
    <defs
       id="defs6009">
      <g
         id="g6011">
        <symbol
           id="textext-89168b20-0"
           overflow="visible"
           style="overflow:visible">
          <path
             id="path6014"
             d=""
             style="stroke:none" />
        </symbol>
        <symbol
           id="textext-89168b20-1"
           overflow="visible"
           style="overflow:visible">
          <path
             id="path6017"
             d="M 3.875,-2.765625 1.890625,-4.75 C 1.765625,-4.875 1.75,-4.890625 1.671875,-4.890625 1.5625,-4.890625 1.46875,-4.8125 1.46875,-4.6875 c 0,0.0625 0.015625,0.078125 0.125,0.1875 l 2,2 -2,2.015625 c -0.109375,0.109375 -0.125,0.125 -0.125,0.1875 0,0.125 0.09375,0.203125 0.203125,0.203125 0.078125,0 0.09375,-0.015625 0.21875,-0.140625 L 3.875,-2.21875 l 2.0625,2.0625 c 0.015625,0.015625 0.078125,0.0625 0.140625,0.0625 0.125,0 0.203125,-0.078125 0.203125,-0.203125 0,-0.015625 0,-0.046875 -0.03125,-0.109375 C 6.234375,-0.421875 4.65625,-1.984375 4.15625,-2.5 l 1.828125,-1.8125 c 0.046875,-0.0625 0.203125,-0.1875 0.25,-0.25 0,-0.015625 0.046875,-0.0625 0.046875,-0.125 0,-0.125 -0.078125,-0.203125 -0.203125,-0.203125 C 6,-4.890625 5.96875,-4.859375 5.859375,-4.75 L 3.875,-2.765625 z m 0,0"
             style="stroke:none" />
        </symbol>
        <symbol
           id="textext-89168b20-2"
           overflow="visible"
           style="overflow:visible">
          <path
             id="path6020"
             d=""
             style="stroke:none" />
        </symbol>
        <symbol
           id="textext-89168b20-3"
           overflow="visible"
           style="overflow:visible">
          <path
             id="path6023"
             d="m 3.953125,-3.78125 c -0.171875,0 -0.296875,0 -0.4375,0.125 -0.171875,0.15625 -0.1875,0.328125 -0.1875,0.390625 0,0.25 0.1875,0.359375 0.375,0.359375 0.28125,0 0.546875,-0.25 0.546875,-0.640625 0,-0.484375 -0.46875,-0.859375 -1.171875,-0.859375 -1.34375,0 -2.671875,1.421875 -2.671875,2.828125 0,0.90625 0.578125,1.6875 1.625,1.6875 1.421875,0 2.25,-1.0625 2.25,-1.171875 0,-0.0625 -0.046875,-0.140625 -0.109375,-0.140625 -0.0625,0 -0.078125,0.03125 -0.140625,0.109375 -0.78125,0.984375 -1.875,0.984375 -1.984375,0.984375 -0.625,0 -0.90625,-0.484375 -0.90625,-1.09375 0,-0.40625 0.203125,-1.375 0.546875,-1.984375 0.3125,-0.578125 0.859375,-1 1.40625,-1 0.328125,0 0.71875,0.125 0.859375,0.40625 z m 0,0"
             style="stroke:none" />
        </symbol>
      </g>
    </defs>
    <g
       id="textext-89168b20-4">
      <g
         id="g6026"
         style="fill:#000000;fill-opacity:1">
        <use
           id="use6028"
           y="134.765"
           x="223.43201"
           xlink:href="#textext-89168b20-1"
           width="3622"
           height="2328" />
      </g>
      <g
         id="g6030"
         style="fill:#000000;fill-opacity:1">
        <use
           id="use6032"
           y="134.765"
           x="231.181"
           xlink:href="#textext-89168b20-3"
           width="3622"
           height="2328" />
      </g>
    </g>
  </g>
</svg>
