<?xml version="1.0" encoding="UTF-8" standalone="no"?>
<!-- Created with Inkscape (http://www.inkscape.org/) -->
<svg
   xmlns:ns0="http://www.iki.fi/pav/software/textext/"
   xmlns:dc="http://purl.org/dc/elements/1.1/"
   xmlns:cc="http://creativecommons.org/ns#"
   xmlns:rdf="http://www.w3.org/1999/02/22-rdf-syntax-ns#"
   xmlns:svg="http://www.w3.org/2000/svg"
   xmlns="http://www.w3.org/2000/svg"
   xmlns:xlink="http://www.w3.org/1999/xlink"
   xmlns:sodipodi="http://sodipodi.sourceforge.net/DTD/sodipodi-0.dtd"
   xmlns:inkscape="http://www.inkscape.org/namespaces/inkscape"
   id="svg2"
   sodipodi:version="0.32"
   inkscape:version="0.46"
   width="990"
   height="765"
   version="1.0"
   sodipodi:docname="symTriComp1.svg"
   inkscape:output_extension="org.inkscape.output.svg.inkscape">
  <sodipodi:namedview
     inkscape:window-height="723"
     inkscape:window-width="1162"
     inkscape:pageshadow="2"
     inkscape:pageopacity="0.0"
     guidetolerance="10.0"
     gridtolerance="10.0"
     objecttolerance="10.0"
     borderopacity="1.0"
     bordercolor="#666666"
     pagecolor="#ffffff"
     id="base"
     showgrid="true"
     inkscape:zoom="2.5615883"
     inkscape:cx="433.72237"
     inkscape:cy="620.75"
     inkscape:window-x="100"
     inkscape:window-y="0"
     inkscape:current-layer="svg2"
     inkscape:document-units="in"
     inkscape:snap-intersection-line-segments="true"
     inkscape:snap-bbox="true"
     inkscape:object-paths="true"
     inkscape:object-nodes="true"
     inkscape:snap-intersection-grid-guide="true"
     inkscape:snap-center="true"
     showguides="true"
     inkscape:guide-bbox="true">
    <inkscape:grid
       empspacing="4"
       spacingy="0.125in"
       spacingx="0.125in"
       enabled="true"
       visible="true"
       units="in"
       id="grid2395"
       type="xygrid" />
  </sodipodi:namedview>
  <metadata
     id="metadata7">
    <rdf:RDF>
      <cc:Work
         rdf:about="">
        <dc:format>image/svg+xml</dc:format>
        <dc:type
           rdf:resource="http://purl.org/dc/dcmitype/StillImage" />
      </cc:Work>
    </rdf:RDF>
  </metadata>
  <defs
     id="defs5">
    <marker
       style="overflow:visible;"
       id="Arrow1Send"
       refX="0.0"
       refY="0.0"
       orient="auto"
       inkscape:stockid="Arrow1Send">
      <path
         transform="scale(0.2) rotate(180) translate(6,0)"
         style="fill-rule:evenodd;stroke:#000000;stroke-width:1.0pt;marker-start:none;"
         d="M 0.0,0.0 L 5.0,-5.0 L -12.5,0.0 L 5.0,5.0 L 0.0,0.0 z "
         id="path3189" />
    </marker>
    <marker
       style="overflow:visible;"
       id="Arrow2Lend"
       refX="0.0"
       refY="0.0"
       orient="auto"
       inkscape:stockid="Arrow2Lend">
      <path
         transform="scale(1.1) rotate(180) translate(1,0)"
         d="M 8.7185878,4.0337352 L -2.2072895,0.016013256 L 8.7185884,-4.0017078 C 6.9730900,-1.6296469 6.9831476,1.6157441 8.7185878,4.0337352 z "
         style="font-size:12.0;fill-rule:evenodd;stroke-width:0.62500000;stroke-linejoin:round;"
         id="path3195" />
    </marker>
    <marker
       style="overflow:visible;"
       id="Arrow2Mend"
       refX="0.0"
       refY="0.0"
       orient="auto"
       inkscape:stockid="Arrow2Mend">
      <path
         transform="scale(0.6) rotate(180) translate(0,0)"
         d="M 8.7185878,4.0337352 L -2.2072895,0.016013256 L 8.7185884,-4.0017078 C 6.9730900,-1.6296469 6.9831476,1.6157441 8.7185878,4.0337352 z "
         style="font-size:12.0;fill-rule:evenodd;stroke-width:0.62500000;stroke-linejoin:round;"
         id="path3201" />
    </marker>
    <marker
       style="overflow:visible"
       id="Arrow1Mstart"
       refX="0.0"
       refY="0.0"
       orient="auto"
       inkscape:stockid="Arrow1Mstart">
      <path
         transform="scale(0.4) translate(10,0)"
         style="fill-rule:evenodd;stroke:#000000;stroke-width:1.0pt;marker-start:none"
         d="M 0.0,0.0 L 5.0,-5.0 L -12.5,0.0 L 5.0,5.0 L 0.0,0.0 z "
         id="path3180" />
    </marker>
    <inkscape:perspective
       id="perspective9"
       inkscape:persp3d-origin="372.04724 : 350.78739 : 1"
       inkscape:vp_z="744.09448 : 526.18109 : 1"
       inkscape:vp_y="0 : 1000 : 0"
       inkscape:vp_x="0 : 526.18109 : 1"
       sodipodi:type="inkscape:persp3d" />
    <marker
       style="overflow:visible;"
       id="Arrow2LendH"
       refX="0.0"
       refY="0.0"
       orient="auto"
       inkscape:stockid="Arrow2LendH">
      <path
         transform="scale(1.1) rotate(180) translate(1,0)"
         d="M 8.7185878,4.0337352 L -2.2072895,0.016013256 L 8.7185884,-4.0017078 C 6.9730900,-1.6296469 6.9831476,1.6157441 8.7185878,4.0337352 z "
         style="stroke-linejoin:round;font-size:12.0;fill-rule:evenodd;stroke:#000000;stroke-width:0.62500000;fill:#000000"
         id="path11517" />
    </marker>
    <marker
       style="overflow:visible;"
       id="Arrow1SendJ"
       refX="0.0"
       refY="0.0"
       orient="auto"
       inkscape:stockid="Arrow1SendJ">
      <path
         transform="scale(0.2) rotate(180) translate(6,0)"
         style="marker-start:none;stroke:#7f7f7f;stroke-width:1.0pt;fill:#7f7f7f;fill-rule:evenodd"
         d="M 0.0,0.0 L 5.0,-5.0 L -12.5,0.0 L 5.0,5.0 L 0.0,0.0 z "
         id="path11606" />
    </marker>
    <marker
       style="overflow:visible;"
       id="Arrow1SendJm"
       refX="0.0"
       refY="0.0"
       orient="auto"
       inkscape:stockid="Arrow1SendJm">
      <path
         transform="scale(0.2) rotate(180) translate(6,0)"
         style="fill-rule:evenodd;marker-start:none;stroke:#a6a6a6;stroke-width:1.0pt;fill:#a6a6a6"
         d="M 0.0,0.0 L 5.0,-5.0 L -12.5,0.0 L 5.0,5.0 L 0.0,0.0 z "
         id="path11817" />
    </marker>
    <defs
       id="defs3444">
      <g
         id="g3446">
        <symbol
           id="textext-767a047d-0"
           overflow="visible">
          <path
             id="path3449"
             d=""
             style="stroke:none;" />
        </symbol>
        <symbol
           id="textext-767a047d-1"
           overflow="visible">
          <path
             id="path3452"
             d="M 3.296875 2.390625 C 3.296875 2.359375 3.296875 2.34375 3.125 2.171875 C 1.890625 0.921875 1.5625 -0.96875 1.5625 -2.5 C 1.5625 -4.234375 1.9375 -5.96875 3.171875 -7.203125 C 3.296875 -7.328125 3.296875 -7.34375 3.296875 -7.375 C 3.296875 -7.453125 3.265625 -7.484375 3.203125 -7.484375 C 3.09375 -7.484375 2.203125 -6.796875 1.609375 -5.53125 C 1.109375 -4.4375 0.984375 -3.328125 0.984375 -2.5 C 0.984375 -1.71875 1.09375 -0.515625 1.640625 0.625 C 2.25 1.84375 3.09375 2.5 3.203125 2.5 C 3.265625 2.5 3.296875 2.46875 3.296875 2.390625 Z M 3.296875 2.390625 "
             style="stroke:none;" />
        </symbol>
        <symbol
           id="textext-767a047d-2"
           overflow="visible">
          <path
             id="path3455"
             d="M 0.28125 -1.640625 L 2.9375 -1.640625 L 2.9375 -0.78125 C 2.9375 -0.421875 2.90625 -0.3125 2.171875 -0.3125 L 1.96875 -0.3125 L 1.96875 0 C 2.375 -0.03125 2.890625 -0.03125 3.3125 -0.03125 C 3.734375 -0.03125 4.25 -0.03125 4.671875 0 L 4.671875 -0.3125 L 4.453125 -0.3125 C 3.71875 -0.3125 3.703125 -0.421875 3.703125 -0.78125 L 3.703125 -1.640625 L 4.6875 -1.640625 L 4.6875 -1.953125 L 3.703125 -1.953125 L 3.703125 -6.484375 C 3.703125 -6.6875 3.703125 -6.75 3.53125 -6.75 C 3.453125 -6.75 3.421875 -6.75 3.34375 -6.625 L 0.28125 -1.953125 L 0.28125 -1.640625 Z M 2.984375 -1.953125 L 0.5625 -1.953125 L 2.984375 -5.671875 L 2.984375 -1.953125 Z M 2.984375 -1.953125 "
             style="stroke:none;" />
        </symbol>
        <symbol
           id="textext-767a047d-3"
           overflow="visible">
          <path
             id="path3458"
             d="M 4.46875 -1.734375 L 4.234375 -1.734375 C 4.171875 -1.4375 4.109375 -1 4 -0.84375 C 3.9375 -0.765625 3.28125 -0.765625 3.0625 -0.765625 L 1.265625 -0.765625 L 2.328125 -1.796875 C 3.875 -3.171875 4.46875 -3.703125 4.46875 -4.703125 C 4.46875 -5.84375 3.578125 -6.640625 2.359375 -6.640625 C 1.234375 -6.640625 0.5 -5.71875 0.5 -4.828125 C 0.5 -4.28125 1 -4.28125 1.03125 -4.28125 C 1.203125 -4.28125 1.546875 -4.390625 1.546875 -4.8125 C 1.546875 -5.0625 1.359375 -5.328125 1.015625 -5.328125 C 0.9375 -5.328125 0.921875 -5.328125 0.890625 -5.3125 C 1.109375 -5.96875 1.65625 -6.328125 2.234375 -6.328125 C 3.140625 -6.328125 3.5625 -5.515625 3.5625 -4.703125 C 3.5625 -3.90625 3.078125 -3.125 2.515625 -2.5 L 0.609375 -0.375 C 0.5 -0.265625 0.5 -0.234375 0.5 0 L 4.203125 0 L 4.46875 -1.734375 Z M 4.46875 -1.734375 "
             style="stroke:none;" />
        </symbol>
        <symbol
           id="textext-767a047d-4"
           overflow="visible">
          <path
             id="path3461"
             d="M 2.875 -2.5 C 2.875 -3.265625 2.765625 -4.46875 2.21875 -5.609375 C 1.625 -6.828125 0.765625 -7.484375 0.671875 -7.484375 C 0.609375 -7.484375 0.5625 -7.4375 0.5625 -7.375 C 0.5625 -7.34375 0.5625 -7.328125 0.75 -7.140625 C 1.734375 -6.15625 2.296875 -4.578125 2.296875 -2.5 C 2.296875 -0.78125 1.9375 0.96875 0.703125 2.21875 C 0.5625 2.34375 0.5625 2.359375 0.5625 2.390625 C 0.5625 2.453125 0.609375 2.5 0.671875 2.5 C 0.765625 2.5 1.671875 1.8125 2.25 0.546875 C 2.765625 -0.546875 2.875 -1.65625 2.875 -2.5 Z M 2.875 -2.5 "
             style="stroke:none;" />
        </symbol>
        <symbol
           id="textext-767a047d-5"
           overflow="visible">
          <path
             id="path3464"
             d=""
             style="stroke:none;" />
        </symbol>
        <symbol
           id="textext-767a047d-6"
           overflow="visible">
          <path
             id="path3467"
             d="M 2.03125 -0.015625 C 2.03125 -0.671875 1.78125 -1.0625 1.390625 -1.0625 C 1.0625 -1.0625 0.859375 -0.8125 0.859375 -0.53125 C 0.859375 -0.265625 1.0625 0 1.390625 0 C 1.5 0 1.640625 -0.046875 1.734375 -0.125 C 1.765625 -0.15625 1.78125 -0.15625 1.78125 -0.15625 C 1.796875 -0.15625 1.796875 -0.15625 1.796875 -0.015625 C 1.796875 0.734375 1.453125 1.328125 1.125 1.65625 C 1.015625 1.765625 1.015625 1.78125 1.015625 1.8125 C 1.015625 1.890625 1.0625 1.921875 1.109375 1.921875 C 1.21875 1.921875 2.03125 1.15625 2.03125 -0.015625 Z M 2.03125 -0.015625 "
             style="stroke:none;" />
        </symbol>
        <symbol
           id="textext-767a047d-7"
           overflow="visible">
          <path
             id="path3470"
             d=""
             style="stroke:none;" />
        </symbol>
        <symbol
           id="textext-767a047d-8"
           overflow="visible">
          <path
             id="path3473"
             d="M 6.59375 -2.296875 C 6.734375 -2.296875 6.921875 -2.296875 6.921875 -2.5 C 6.921875 -2.6875 6.734375 -2.6875 6.59375 -2.6875 L 1.15625 -2.6875 C 1.015625 -2.6875 0.828125 -2.6875 0.828125 -2.5 C 0.828125 -2.296875 1.015625 -2.296875 1.15625 -2.296875 L 6.59375 -2.296875 Z M 6.59375 -2.296875 "
             style="stroke:none;" />
        </symbol>
      </g>
    </defs>
  </defs>
  <path
     sodipodi:type="arc"
     style="opacity:1;fill:none;fill-opacity:1;stroke:#000000;stroke-width:0.5;stroke-linecap:square;stroke-linejoin:bevel;stroke-miterlimit:4;stroke-dasharray:none;stroke-opacity:0.39215686"
     id="path11772"
     sodipodi:cx="202.5"
     sodipodi:cy="112.5"
     sodipodi:rx="0"
     sodipodi:ry="0"
     d="M 202.5,112.5 A 0,0 0 1 1 202.5,112.5 A 0,0 0 1 1 202.5,112.5 z" />
  <path
     sodipodi:type="arc"
     style="fill:#000000;fill-opacity:1;stroke:none;stroke-width:0.5;stroke-linecap:square;stroke-linejoin:bevel;stroke-miterlimit:4;stroke-dasharray:none;stroke-opacity:0.43171806"
     id="path11794"
     sodipodi:cx="444.375"
     sodipodi:cy="129.375"
     sodipodi:rx="5.625"
     sodipodi:ry="5.625"
     d="M 450,129.375 A 5.625,5.625 0 1 1 438.75,129.375 A 5.625,5.625 0 1 1 450,129.375 z"
     transform="matrix(0.64,0,0,0.6417315,-14.4,29.475987)" />
  <path
     sodipodi:type="arc"
     style="fill:#000000;fill-opacity:1;stroke:none;stroke-width:0.5;stroke-linecap:square;stroke-linejoin:bevel;stroke-miterlimit:4;stroke-dasharray:none;stroke-opacity:0.43171806"
     id="path2532"
     sodipodi:cx="444.375"
     sodipodi:cy="129.375"
     sodipodi:rx="5.625"
     sodipodi:ry="5.625"
     d="M 450,129.375 A 5.625,5.625 0 1 1 438.75,129.375 A 5.625,5.625 0 1 1 450,129.375 z"
     transform="matrix(0.32,-0.5542563,0.5557558,0.3208657,94.860943,384.76952)" />
  <path
     sodipodi:type="arc"
     style="fill:#000000;fill-opacity:1;stroke:none;stroke-width:0.5;stroke-linecap:square;stroke-linejoin:bevel;stroke-miterlimit:4;stroke-dasharray:none;stroke-opacity:0.43171806"
     id="path2540"
     sodipodi:cx="444.375"
     sodipodi:cy="129.375"
     sodipodi:rx="5.625"
     sodipodi:ry="5.625"
     d="M 450,129.375 A 5.625,5.625 0 1 1 438.75,129.375 A 5.625,5.625 0 1 1 450,129.375 z"
     transform="matrix(-0.32,-0.5542563,0.5557558,-0.3208657,301.30003,467.77494)" />
  <path
     id="path2550"
     d="M 269.9628,112.46281 L 230.94722,179.83932 L 308.76363,179.96281 L 269.9628,112.46281 z"
     style="fill:none;fill-rule:evenodd;stroke:#000000;stroke-width:1px;stroke-linecap:butt;stroke-linejoin:miter;stroke-opacity:1" />
  <g
     id="g2740"
     ns0:preamble=""
     ns0:text="$A$"
     transform="translate(34.974243,-26.374374)">
    <defs
       id="defs2742">
      <g
         id="g2744">
        <symbol
           id="textext-245121e3-0"
           overflow="visible"
           style="overflow:visible">
          <path
             id="path2747"
             d=""
             style="stroke:none" />
        </symbol>
        <symbol
           id="textext-245121e3-1"
           overflow="visible"
           style="overflow:visible">
          <path
             id="path2750"
             d="M 1.78125,-1.140625 C 1.390625,-0.484375 1,-0.34375 0.5625,-0.3125 C 0.4375,-0.296875 0.34375,-0.296875 0.34375,-0.109375 C 0.34375,-0.046875 0.40625,0 0.484375,0 C 0.75,0 1.0625,-0.03125 1.328125,-0.03125 C 1.671875,-0.03125 2.015625,0 2.328125,0 C 2.390625,0 2.515625,0 2.515625,-0.1875 C 2.515625,-0.296875 2.4375,-0.3125 2.359375,-0.3125 C 2.140625,-0.328125 1.890625,-0.40625 1.890625,-0.65625 C 1.890625,-0.78125 1.953125,-0.890625 2.03125,-1.03125 C 2.109375,-1.140625 2.109375,-1.140625 2.796875,-2.296875 L 5.296875,-2.296875 C 5.3125,-2.09375 5.453125,-0.734375 5.453125,-0.640625 C 5.453125,-0.34375 4.9375,-0.3125 4.734375,-0.3125 C 4.59375,-0.3125 4.5,-0.3125 4.5,-0.109375 C 4.5,0 4.609375,0 4.640625,0 C 5.046875,0 5.46875,-0.03125 5.875,-0.03125 C 6.125,-0.03125 6.765625,0 7.015625,0 C 7.0625,0 7.1875,0 7.1875,-0.203125 C 7.1875,-0.3125 7.09375,-0.3125 6.953125,-0.3125 C 6.34375,-0.3125 6.34375,-0.375 6.3125,-0.671875 L 5.703125,-6.890625 C 5.6875,-7.09375 5.6875,-7.140625 5.515625,-7.140625 C 5.359375,-7.140625 5.3125,-7.0625 5.25,-6.96875 L 1.78125,-1.140625 z M 2.984375,-2.609375 L 4.9375,-5.90625 L 5.265625,-2.609375 L 2.984375,-2.609375 z"
             style="stroke:none" />
        </symbol>
      </g>
    </defs>
    <g
       id="textext-245121e3-2">
      <g
         id="g2753"
         style="fill:#000000;fill-opacity:1">
        <use
           id="use2755"
           y="134.765"
           x="223.43201"
           xlink:href="#textext-245121e3-1"
           width="990"
           height="765" />
      </g>
    </g>
  </g>
  <g
     transform="translate(-5.6875,51.8125)"
     ns0:text="$B$"
     ns0:preamble=""
     id="g2865">
    <defs
       id="defs2867">
      <g
         id="g2869">
        <symbol
           style="overflow:visible"
           overflow="visible"
           id="textext-ebb944c4-0">
          <path
             style="stroke:none"
             d=""
             id="path2872" />
        </symbol>
        <symbol
           style="overflow:visible"
           overflow="visible"
           id="textext-ebb944c4-1">
          <path
             style="stroke:none"
             d="M 1.59375,-0.78125 C 1.5,-0.390625 1.46875,-0.3125 0.6875,-0.3125 C 0.515625,-0.3125 0.421875,-0.3125 0.421875,-0.109375 C 0.421875,0 0.515625,0 0.6875,0 L 4.25,0 C 5.828125,0 7,-1.171875 7,-2.15625 C 7,-2.875 6.421875,-3.453125 5.453125,-3.5625 C 6.484375,-3.75 7.53125,-4.484375 7.53125,-5.4375 C 7.53125,-6.171875 6.875,-6.8125 5.6875,-6.8125 L 2.328125,-6.8125 C 2.140625,-6.8125 2.046875,-6.8125 2.046875,-6.609375 C 2.046875,-6.5 2.140625,-6.5 2.328125,-6.5 C 2.34375,-6.5 2.53125,-6.5 2.703125,-6.484375 C 2.875,-6.453125 2.96875,-6.453125 2.96875,-6.3125 C 2.96875,-6.28125 2.953125,-6.25 2.9375,-6.125 L 1.59375,-0.78125 z M 3.09375,-3.65625 L 3.71875,-6.125 C 3.8125,-6.46875 3.828125,-6.5 4.25,-6.5 L 5.546875,-6.5 C 6.421875,-6.5 6.625,-5.90625 6.625,-5.46875 C 6.625,-4.59375 5.765625,-3.65625 4.5625,-3.65625 L 3.09375,-3.65625 z M 2.65625,-0.3125 C 2.515625,-0.3125 2.5,-0.3125 2.4375,-0.3125 C 2.328125,-0.328125 2.296875,-0.34375 2.296875,-0.421875 C 2.296875,-0.453125 2.296875,-0.46875 2.359375,-0.640625 L 3.046875,-3.421875 L 4.921875,-3.421875 C 5.875,-3.421875 6.078125,-2.6875 6.078125,-2.265625 C 6.078125,-1.28125 5.1875,-0.3125 4,-0.3125 L 2.65625,-0.3125 z"
             id="path2875" />
        </symbol>
      </g>
    </defs>
    <g
       id="textext-ebb944c4-2">
      <g
         style="fill:#000000;fill-opacity:1"
         id="g2878">
        <use
           height="765"
           width="990"
           xlink:href="#textext-ebb944c4-1"
           x="223.43201"
           y="134.765"
           id="use2880" />
      </g>
    </g>
  </g>
  <g
     id="g3010"
     ns0:preamble=""
     ns0:text="$C$"
     transform="translate(90.22082,51.921875)">
    <defs
       id="defs3012">
      <g
         id="g3014">
        <symbol
           id="textext-985e667b-0"
           overflow="visible"
           style="overflow:visible">
          <path
             id="path3017"
             d=""
             style="stroke:none" />
        </symbol>
        <symbol
           id="textext-985e667b-1"
           overflow="visible"
           style="overflow:visible">
          <path
             id="path3020"
             d="M 7.578125,-6.921875 C 7.578125,-6.953125 7.5625,-7.03125 7.46875,-7.03125 C 7.4375,-7.03125 7.421875,-7.015625 7.3125,-6.90625 L 6.625,-6.140625 C 6.53125,-6.28125 6.078125,-7.03125 4.96875,-7.03125 C 2.734375,-7.03125 0.5,-4.828125 0.5,-2.515625 C 0.5,-0.875 1.671875,0.21875 3.203125,0.21875 C 4.0625,0.21875 4.828125,-0.171875 5.359375,-0.640625 C 6.28125,-1.453125 6.453125,-2.359375 6.453125,-2.390625 C 6.453125,-2.5 6.34375,-2.5 6.328125,-2.5 C 6.265625,-2.5 6.21875,-2.46875 6.203125,-2.390625 C 6.109375,-2.109375 5.875,-1.390625 5.1875,-0.8125 C 4.5,-0.265625 3.875,-0.09375 3.359375,-0.09375 C 2.46875,-0.09375 1.40625,-0.609375 1.40625,-2.15625 C 1.40625,-2.734375 1.609375,-4.34375 2.609375,-5.515625 C 3.21875,-6.21875 4.15625,-6.71875 5.046875,-6.71875 C 6.0625,-6.71875 6.65625,-5.953125 6.65625,-4.796875 C 6.65625,-4.390625 6.625,-4.390625 6.625,-4.28125 C 6.625,-4.1875 6.734375,-4.1875 6.765625,-4.1875 C 6.890625,-4.1875 6.890625,-4.203125 6.953125,-4.390625 L 7.578125,-6.921875 z"
             style="stroke:none" />
        </symbol>
      </g>
    </defs>
    <g
       id="textext-985e667b-2">
      <g
         id="g3023"
         style="fill:#000000;fill-opacity:1">
        <use
           id="use3025"
           y="134.765"
           x="223.43201"
           xlink:href="#textext-985e667b-1"
           width="990"
           height="765" />
      </g>
    </g>
  </g>
  <path
     transform="matrix(0.64,0,0,0.6417315,143.24458,29.513177)"
     d="M 450,129.375 A 5.625,5.625 0 1 1 438.75,129.375 A 5.625,5.625 0 1 1 450,129.375 z"
     sodipodi:ry="5.625"
     sodipodi:rx="5.625"
     sodipodi:cy="129.375"
     sodipodi:cx="444.375"
     id="path3120"
     style="fill:#000000;fill-opacity:1;stroke:none;stroke-width:0.5;stroke-linecap:square;stroke-linejoin:bevel;stroke-miterlimit:4;stroke-dasharray:none;stroke-opacity:0.43171806"
     sodipodi:type="arc" />
  <path
     transform="matrix(0.32,-0.5542563,0.5557558,0.3208657,252.50552,384.80671)"
     d="M 450,129.375 A 5.625,5.625 0 1 1 438.75,129.375 A 5.625,5.625 0 1 1 450,129.375 z"
     sodipodi:ry="5.625"
     sodipodi:rx="5.625"
     sodipodi:cy="129.375"
     sodipodi:cx="444.375"
     id="path3122"
     style="fill:#000000;fill-opacity:1;stroke:none;stroke-width:0.5;stroke-linecap:square;stroke-linejoin:bevel;stroke-miterlimit:4;stroke-dasharray:none;stroke-opacity:0.43171806"
     sodipodi:type="arc" />
  <path
     transform="matrix(-0.32,-0.5542563,0.5557558,-0.3208657,458.94461,467.81213)"
     d="M 450,129.375 A 5.625,5.625 0 1 1 438.75,129.375 A 5.625,5.625 0 1 1 450,129.375 z"
     sodipodi:ry="5.625"
     sodipodi:rx="5.625"
     sodipodi:cy="129.375"
     sodipodi:cx="444.375"
     id="path3124"
     style="fill:#000000;fill-opacity:1;stroke:none;stroke-width:0.5;stroke-linecap:square;stroke-linejoin:bevel;stroke-miterlimit:4;stroke-dasharray:none;stroke-opacity:0.43171806"
     sodipodi:type="arc" />
  <path
     style="fill:none;fill-rule:evenodd;stroke:#000000;stroke-width:1px;stroke-linecap:butt;stroke-linejoin:miter;stroke-opacity:1"
     d="M 427.60738,112.5 L 388.5918,179.87651 L 466.40821,180 L 427.60738,112.5 z"
     id="path3126" />
  <g
     transform="translate(151.88049,52.375626)"
     ns0:text="$A$"
     ns0:preamble=""
     id="g3128">
    <defs
       id="defs3130">
      <g
         id="g3132">
        <symbol
           style="overflow:visible"
           overflow="visible"
           id="symbol3134">
          <path
             style="stroke:none"
             d=""
             id="path3136" />
        </symbol>
        <symbol
           style="overflow:visible"
           overflow="visible"
           id="symbol3138">
          <path
             style="stroke:none"
             d="M 1.78125,-1.140625 C 1.390625,-0.484375 1,-0.34375 0.5625,-0.3125 C 0.4375,-0.296875 0.34375,-0.296875 0.34375,-0.109375 C 0.34375,-0.046875 0.40625,0 0.484375,0 C 0.75,0 1.0625,-0.03125 1.328125,-0.03125 C 1.671875,-0.03125 2.015625,0 2.328125,0 C 2.390625,0 2.515625,0 2.515625,-0.1875 C 2.515625,-0.296875 2.4375,-0.3125 2.359375,-0.3125 C 2.140625,-0.328125 1.890625,-0.40625 1.890625,-0.65625 C 1.890625,-0.78125 1.953125,-0.890625 2.03125,-1.03125 C 2.109375,-1.140625 2.109375,-1.140625 2.796875,-2.296875 L 5.296875,-2.296875 C 5.3125,-2.09375 5.453125,-0.734375 5.453125,-0.640625 C 5.453125,-0.34375 4.9375,-0.3125 4.734375,-0.3125 C 4.59375,-0.3125 4.5,-0.3125 4.5,-0.109375 C 4.5,0 4.609375,0 4.640625,0 C 5.046875,0 5.46875,-0.03125 5.875,-0.03125 C 6.125,-0.03125 6.765625,0 7.015625,0 C 7.0625,0 7.1875,0 7.1875,-0.203125 C 7.1875,-0.3125 7.09375,-0.3125 6.953125,-0.3125 C 6.34375,-0.3125 6.34375,-0.375 6.3125,-0.671875 L 5.703125,-6.890625 C 5.6875,-7.09375 5.6875,-7.140625 5.515625,-7.140625 C 5.359375,-7.140625 5.3125,-7.0625 5.25,-6.96875 L 1.78125,-1.140625 z M 2.984375,-2.609375 L 4.9375,-5.90625 L 5.265625,-2.609375 L 2.984375,-2.609375 z"
             id="path3140" />
        </symbol>
      </g>
    </defs>
    <g
       id="g3142">
      <g
         style="fill:#000000;fill-opacity:1"
         id="g3144">
        <use
           height="765"
           width="990"
           xlink:href="#textext-245121e3-1"
           x="223.43201"
           y="134.765"
           id="use3146" />
      </g>
    </g>
  </g>
  <g
     id="g3148"
     ns0:preamble=""
     ns0:text="$B$"
     transform="translate(248.64612,52.047501)">
    <defs
       id="defs3150">
      <g
         id="g3152">
        <symbol
           id="symbol3154"
           overflow="visible"
           style="overflow:visible">
          <path
             id="path3156"
             d=""
             style="stroke:none" />
        </symbol>
        <symbol
           id="symbol3158"
           overflow="visible"
           style="overflow:visible">
          <path
             id="path3160"
             d="M 1.59375,-0.78125 C 1.5,-0.390625 1.46875,-0.3125 0.6875,-0.3125 C 0.515625,-0.3125 0.421875,-0.3125 0.421875,-0.109375 C 0.421875,0 0.515625,0 0.6875,0 L 4.25,0 C 5.828125,0 7,-1.171875 7,-2.15625 C 7,-2.875 6.421875,-3.453125 5.453125,-3.5625 C 6.484375,-3.75 7.53125,-4.484375 7.53125,-5.4375 C 7.53125,-6.171875 6.875,-6.8125 5.6875,-6.8125 L 2.328125,-6.8125 C 2.140625,-6.8125 2.046875,-6.8125 2.046875,-6.609375 C 2.046875,-6.5 2.140625,-6.5 2.328125,-6.5 C 2.34375,-6.5 2.53125,-6.5 2.703125,-6.484375 C 2.875,-6.453125 2.96875,-6.453125 2.96875,-6.3125 C 2.96875,-6.28125 2.953125,-6.25 2.9375,-6.125 L 1.59375,-0.78125 z M 3.09375,-3.65625 L 3.71875,-6.125 C 3.8125,-6.46875 3.828125,-6.5 4.25,-6.5 L 5.546875,-6.5 C 6.421875,-6.5 6.625,-5.90625 6.625,-5.46875 C 6.625,-4.59375 5.765625,-3.65625 4.5625,-3.65625 L 3.09375,-3.65625 z M 2.65625,-0.3125 C 2.515625,-0.3125 2.5,-0.3125 2.4375,-0.3125 C 2.328125,-0.328125 2.296875,-0.34375 2.296875,-0.421875 C 2.296875,-0.453125 2.296875,-0.46875 2.359375,-0.640625 L 3.046875,-3.421875 L 4.921875,-3.421875 C 5.875,-3.421875 6.078125,-2.6875 6.078125,-2.265625 C 6.078125,-1.28125 5.1875,-0.3125 4,-0.3125 L 2.65625,-0.3125 z"
             style="stroke:none" />
        </symbol>
      </g>
    </defs>
    <g
       id="g3162">
      <g
         id="g3164"
         style="fill:#000000;fill-opacity:1">
        <use
           id="use3166"
           y="134.765"
           x="223.43201"
           xlink:href="#textext-ebb944c4-1"
           width="990"
           height="765" />
      </g>
    </g>
  </g>
  <g
     transform="translate(192.31799,-26.483749)"
     ns0:text="$C$"
     ns0:preamble=""
     id="g3168">
    <defs
       id="defs3170">
      <g
         id="g3172">
        <symbol
           style="overflow:visible"
           overflow="visible"
           id="symbol3174">
          <path
             style="stroke:none"
             d=""
             id="path3176" />
        </symbol>
        <symbol
           style="overflow:visible"
           overflow="visible"
           id="symbol3178">
          <path
             style="stroke:none"
             d="M 7.578125,-6.921875 C 7.578125,-6.953125 7.5625,-7.03125 7.46875,-7.03125 C 7.4375,-7.03125 7.421875,-7.015625 7.3125,-6.90625 L 6.625,-6.140625 C 6.53125,-6.28125 6.078125,-7.03125 4.96875,-7.03125 C 2.734375,-7.03125 0.5,-4.828125 0.5,-2.515625 C 0.5,-0.875 1.671875,0.21875 3.203125,0.21875 C 4.0625,0.21875 4.828125,-0.171875 5.359375,-0.640625 C 6.28125,-1.453125 6.453125,-2.359375 6.453125,-2.390625 C 6.453125,-2.5 6.34375,-2.5 6.328125,-2.5 C 6.265625,-2.5 6.21875,-2.46875 6.203125,-2.390625 C 6.109375,-2.109375 5.875,-1.390625 5.1875,-0.8125 C 4.5,-0.265625 3.875,-0.09375 3.359375,-0.09375 C 2.46875,-0.09375 1.40625,-0.609375 1.40625,-2.15625 C 1.40625,-2.734375 1.609375,-4.34375 2.609375,-5.515625 C 3.21875,-6.21875 4.15625,-6.71875 5.046875,-6.71875 C 6.0625,-6.71875 6.65625,-5.953125 6.65625,-4.796875 C 6.65625,-4.390625 6.625,-4.390625 6.625,-4.28125 C 6.625,-4.1875 6.734375,-4.1875 6.765625,-4.1875 C 6.890625,-4.1875 6.890625,-4.203125 6.953125,-4.390625 L 7.578125,-6.921875 z"
             id="path3181" />
        </symbol>
      </g>
    </defs>
    <g
       id="g3183">
      <g
         style="fill:#000000;fill-opacity:1"
         id="g3185">
        <use
           height="765"
           width="990"
           xlink:href="#textext-985e667b-1"
           x="223.43201"
           y="134.765"
           id="use3187" />
      </g>
    </g>
  </g>
  <path
     style="fill:none;fill-rule:evenodd;stroke:#000000;stroke-width:0.99;stroke-linecap:butt;stroke-linejoin:miter;stroke-opacity:1;stroke-miterlimit:4;stroke-dasharray:none;marker-end:url(#Arrow2Mend)"
     d="M 315,146.25 L 371.25,146.25"
     id="path3200" />
  <g
     transform="translate(266.51562,6.234375)"
     ns0:text="$\\mathsf{F}_{x=0}$"
     ns0:preamble=""
     id="g4675">
    <defs
       id="defs4677">
      <g
         id="g4679">
        <symbol
           style="overflow:visible"
           overflow="visible"
           id="textext-3500f53c-0">
          <path
             style="stroke:none"
             d=""
             id="path4682" />
        </symbol>
        <symbol
           style="overflow:visible"
           overflow="visible"
           id="textext-3500f53c-1">
          <path
             style="stroke:none"
             d="M 4.828125,-3.140625 L 4.828125,-3.75 L 1.828125,-3.75 L 1.828125,-6.25 L 3.125,-6.25 C 3.25,-6.25 3.375,-6.234375 3.484375,-6.234375 L 5.25,-6.234375 L 5.25,-6.890625 L 0.9375,-6.890625 L 0.9375,0 L 1.828125,0 L 1.828125,-3.140625 L 4.828125,-3.140625 z"
             id="path4685" />
        </symbol>
        <symbol
           style="overflow:visible"
           overflow="visible"
           id="textext-3500f53c-2">
          <path
             style="stroke:none"
             d=""
             id="path4688" />
        </symbol>
        <symbol
           style="overflow:visible"
           overflow="visible"
           id="textext-3500f53c-3">
          <path
             style="stroke:none"
             d="M 1.734375,-0.734375 C 1.671875,-0.5 1.4375,-0.125 1.078125,-0.125 C 1.0625,-0.125 0.84375,-0.125 0.703125,-0.21875 C 0.984375,-0.3125 1.015625,-0.5625 1.015625,-0.609375 C 1.015625,-0.765625 0.890625,-0.859375 0.734375,-0.859375 C 0.53125,-0.859375 0.328125,-0.703125 0.328125,-0.4375 C 0.328125,-0.09375 0.71875,0.0625 1.0625,0.0625 C 1.390625,0.0625 1.671875,-0.125 1.84375,-0.421875 C 2.015625,-0.0625 2.390625,0.0625 2.671875,0.0625 C 3.484375,0.0625 3.90625,-0.796875 3.90625,-1 C 3.90625,-1.09375 3.8125,-1.09375 3.796875,-1.09375 C 3.6875,-1.09375 3.6875,-1.046875 3.65625,-0.96875 C 3.515625,-0.484375 3.09375,-0.125 2.703125,-0.125 C 2.421875,-0.125 2.28125,-0.3125 2.28125,-0.578125 C 2.28125,-0.765625 2.453125,-1.390625 2.640625,-2.171875 C 2.78125,-2.703125 3.09375,-2.875 3.328125,-2.875 C 3.34375,-2.875 3.546875,-2.875 3.703125,-2.78125 C 3.484375,-2.71875 3.390625,-2.515625 3.390625,-2.390625 C 3.390625,-2.25 3.515625,-2.140625 3.671875,-2.140625 C 3.828125,-2.140625 4.0625,-2.265625 4.0625,-2.5625 C 4.0625,-2.953125 3.609375,-3.078125 3.34375,-3.078125 C 2.984375,-3.078125 2.703125,-2.84375 2.5625,-2.578125 C 2.4375,-2.859375 2.109375,-3.078125 1.71875,-3.078125 C 0.9375,-3.078125 0.5,-2.21875 0.5,-2 C 0.5,-1.921875 0.59375,-1.921875 0.609375,-1.921875 C 0.703125,-1.921875 0.703125,-1.9375 0.75,-2.03125 C 0.921875,-2.578125 1.359375,-2.875 1.703125,-2.875 C 1.9375,-2.875 2.125,-2.75 2.125,-2.421875 C 2.125,-2.28125 2.03125,-1.9375 1.96875,-1.6875 L 1.734375,-0.734375 z"
             id="path4691" />
        </symbol>
        <symbol
           style="overflow:visible"
           overflow="visible"
           id="textext-3500f53c-4">
          <path
             style="stroke:none"
             d=""
             id="path4694" />
        </symbol>
        <symbol
           style="overflow:visible"
           overflow="visible"
           id="textext-3500f53c-5">
          <path
             style="stroke:none"
             d="M 5.359375,-2.34375 C 5.453125,-2.34375 5.609375,-2.34375 5.609375,-2.515625 C 5.609375,-2.6875 5.453125,-2.6875 5.359375,-2.6875 L 0.75,-2.6875 C 0.65625,-2.6875 0.484375,-2.6875 0.484375,-2.515625 C 0.484375,-2.34375 0.640625,-2.34375 0.75,-2.34375 L 5.359375,-2.34375 z M 5.359375,-0.8125 C 5.453125,-0.8125 5.609375,-0.8125 5.609375,-0.96875 C 5.609375,-1.15625 5.453125,-1.15625 5.359375,-1.15625 L 0.75,-1.15625 C 0.640625,-1.15625 0.484375,-1.15625 0.484375,-0.96875 C 0.484375,-0.8125 0.65625,-0.8125 0.75,-0.8125 L 5.359375,-0.8125 z"
             id="path4697" />
        </symbol>
        <symbol
           style="overflow:visible"
           overflow="visible"
           id="textext-3500f53c-6">
          <path
             style="stroke:none"
             d="M 3.59375,-2.21875 C 3.59375,-2.984375 3.5,-3.546875 3.1875,-4.03125 C 2.96875,-4.34375 2.53125,-4.625 1.984375,-4.625 C 0.359375,-4.625 0.359375,-2.71875 0.359375,-2.21875 C 0.359375,-1.71875 0.359375,0.140625 1.984375,0.140625 C 3.59375,0.140625 3.59375,-1.71875 3.59375,-2.21875 z M 1.984375,-0.0625 C 1.65625,-0.0625 1.234375,-0.25 1.09375,-0.8125 C 1,-1.21875 1,-1.796875 1,-2.3125 C 1,-2.828125 1,-3.359375 1.09375,-3.734375 C 1.25,-4.28125 1.6875,-4.4375 1.984375,-4.4375 C 2.359375,-4.4375 2.71875,-4.203125 2.84375,-3.796875 C 2.953125,-3.421875 2.96875,-2.921875 2.96875,-2.3125 C 2.96875,-1.796875 2.96875,-1.28125 2.875,-0.84375 C 2.734375,-0.203125 2.265625,-0.0625 1.984375,-0.0625 z"
             id="path4700" />
        </symbol>
      </g>
    </defs>
    <g
       id="textext-3500f53c-7">
      <g
         style="fill:#000000;fill-opacity:1"
         id="g4703">
        <use
           height="765"
           width="990"
           xlink:href="#textext-3500f53c-1"
           x="223.43201"
           y="134.765"
           id="use4705" />
      </g>
      <g
         style="fill:#000000;fill-opacity:1"
         id="g4707">
        <use
           height="765"
           width="990"
           xlink:href="#textext-3500f53c-3"
           x="229.105"
           y="136.259"
           id="use4709" />
      </g>
      <g
         style="fill:#000000;fill-opacity:1"
         id="g4711">
        <use
           height="765"
           width="990"
           xlink:href="#textext-3500f53c-5"
           x="233.623"
           y="136.259"
           id="use4713" />
        <use
           height="765"
           width="990"
           xlink:href="#textext-3500f53c-6"
           x="239.73903"
           y="136.259"
           id="use4715" />
      </g>
    </g>
  </g>
  <path
     sodipodi:type="arc"
     style="fill:#000000;fill-opacity:1;stroke:none;stroke-width:0.5;stroke-linecap:square;stroke-linejoin:bevel;stroke-miterlimit:4;stroke-dasharray:none;stroke-opacity:0.43171806"
     id="path4890"
     sodipodi:cx="444.375"
     sodipodi:cy="129.375"
     sodipodi:rx="5.625"
     sodipodi:ry="5.625"
     d="M 450,129.375 A 5.625,5.625 0 1 1 438.75,129.375 A 5.625,5.625 0 1 1 450,129.375 z"
     transform="matrix(0.64,0,0,0.6417315,301.0727,29.513177)" />
  <path
     sodipodi:type="arc"
     style="fill:#000000;fill-opacity:1;stroke:none;stroke-width:0.5;stroke-linecap:square;stroke-linejoin:bevel;stroke-miterlimit:4;stroke-dasharray:none;stroke-opacity:0.43171806"
     id="path4892"
     sodipodi:cx="444.375"
     sodipodi:cy="129.375"
     sodipodi:rx="5.625"
     sodipodi:ry="5.625"
     d="M 450,129.375 A 5.625,5.625 0 1 1 438.75,129.375 A 5.625,5.625 0 1 1 450,129.375 z"
     transform="matrix(0.32,-0.5542563,0.5557558,0.3208657,410.33364,384.80671)" />
  <path
     sodipodi:type="arc"
     style="fill:#000000;fill-opacity:1;stroke:none;stroke-width:0.5;stroke-linecap:square;stroke-linejoin:bevel;stroke-miterlimit:4;stroke-dasharray:none;stroke-opacity:0.43171806"
     id="path4894"
     sodipodi:cx="444.375"
     sodipodi:cy="129.375"
     sodipodi:rx="5.625"
     sodipodi:ry="5.625"
     d="M 450,129.375 A 5.625,5.625 0 1 1 438.75,129.375 A 5.625,5.625 0 1 1 450,129.375 z"
     transform="matrix(-0.32,-0.5542563,0.5557558,-0.3208657,616.77273,467.81213)" />
  <path
     id="path4896"
     d="M 585.4355,112.5 L 546.41992,179.87651 L 624.23633,180 L 585.4355,112.5 z"
     style="fill:none;fill-rule:evenodd;stroke:#000000;stroke-width:1px;stroke-linecap:butt;stroke-linejoin:miter;stroke-opacity:1" />
  <g
     id="g4898"
     ns0:preamble=""
     ns0:text="$A$"
     transform="translate(405.0315,51.96875)">
    <defs
       id="defs4900">
      <g
         id="g4902">
        <symbol
           id="symbol4904"
           overflow="visible"
           style="overflow:visible">
          <path
             id="path4906"
             d=""
             style="stroke:none" />
        </symbol>
        <symbol
           id="symbol4908"
           overflow="visible"
           style="overflow:visible">
          <path
             id="path4910"
             d="M 1.78125,-1.140625 C 1.390625,-0.484375 1,-0.34375 0.5625,-0.3125 C 0.4375,-0.296875 0.34375,-0.296875 0.34375,-0.109375 C 0.34375,-0.046875 0.40625,0 0.484375,0 C 0.75,0 1.0625,-0.03125 1.328125,-0.03125 C 1.671875,-0.03125 2.015625,0 2.328125,0 C 2.390625,0 2.515625,0 2.515625,-0.1875 C 2.515625,-0.296875 2.4375,-0.3125 2.359375,-0.3125 C 2.140625,-0.328125 1.890625,-0.40625 1.890625,-0.65625 C 1.890625,-0.78125 1.953125,-0.890625 2.03125,-1.03125 C 2.109375,-1.140625 2.109375,-1.140625 2.796875,-2.296875 L 5.296875,-2.296875 C 5.3125,-2.09375 5.453125,-0.734375 5.453125,-0.640625 C 5.453125,-0.34375 4.9375,-0.3125 4.734375,-0.3125 C 4.59375,-0.3125 4.5,-0.3125 4.5,-0.109375 C 4.5,0 4.609375,0 4.640625,0 C 5.046875,0 5.46875,-0.03125 5.875,-0.03125 C 6.125,-0.03125 6.765625,0 7.015625,0 C 7.0625,0 7.1875,0 7.1875,-0.203125 C 7.1875,-0.3125 7.09375,-0.3125 6.953125,-0.3125 C 6.34375,-0.3125 6.34375,-0.375 6.3125,-0.671875 L 5.703125,-6.890625 C 5.6875,-7.09375 5.6875,-7.140625 5.515625,-7.140625 C 5.359375,-7.140625 5.3125,-7.0625 5.25,-6.96875 L 1.78125,-1.140625 z M 2.984375,-2.609375 L 4.9375,-5.90625 L 5.265625,-2.609375 L 2.984375,-2.609375 z"
             style="stroke:none" />
        </symbol>
      </g>
    </defs>
    <g
       id="g4912">
      <g
         id="g4914"
         style="fill:#000000;fill-opacity:1">
        <use
           id="use4916"
           y="134.765"
           x="223.43201"
           xlink:href="#textext-245121e3-1"
           width="990"
           height="765" />
      </g>
    </g>
  </g>
  <g
     transform="translate(309.3125,51.8125)"
     ns0:text="$B$"
     ns0:preamble=""
     id="g4918">
    <defs
       id="defs4920">
      <g
         id="g4922">
        <symbol
           style="overflow:visible"
           overflow="visible"
           id="symbol4924">
          <path
             style="stroke:none"
             d=""
             id="path4926" />
        </symbol>
        <symbol
           style="overflow:visible"
           overflow="visible"
           id="symbol4928">
          <path
             style="stroke:none"
             d="M 1.59375,-0.78125 C 1.5,-0.390625 1.46875,-0.3125 0.6875,-0.3125 C 0.515625,-0.3125 0.421875,-0.3125 0.421875,-0.109375 C 0.421875,0 0.515625,0 0.6875,0 L 4.25,0 C 5.828125,0 7,-1.171875 7,-2.15625 C 7,-2.875 6.421875,-3.453125 5.453125,-3.5625 C 6.484375,-3.75 7.53125,-4.484375 7.53125,-5.4375 C 7.53125,-6.171875 6.875,-6.8125 5.6875,-6.8125 L 2.328125,-6.8125 C 2.140625,-6.8125 2.046875,-6.8125 2.046875,-6.609375 C 2.046875,-6.5 2.140625,-6.5 2.328125,-6.5 C 2.34375,-6.5 2.53125,-6.5 2.703125,-6.484375 C 2.875,-6.453125 2.96875,-6.453125 2.96875,-6.3125 C 2.96875,-6.28125 2.953125,-6.25 2.9375,-6.125 L 1.59375,-0.78125 z M 3.09375,-3.65625 L 3.71875,-6.125 C 3.8125,-6.46875 3.828125,-6.5 4.25,-6.5 L 5.546875,-6.5 C 6.421875,-6.5 6.625,-5.90625 6.625,-5.46875 C 6.625,-4.59375 5.765625,-3.65625 4.5625,-3.65625 L 3.09375,-3.65625 z M 2.65625,-0.3125 C 2.515625,-0.3125 2.5,-0.3125 2.4375,-0.3125 C 2.328125,-0.328125 2.296875,-0.34375 2.296875,-0.421875 C 2.296875,-0.453125 2.296875,-0.46875 2.359375,-0.640625 L 3.046875,-3.421875 L 4.921875,-3.421875 C 5.875,-3.421875 6.078125,-2.6875 6.078125,-2.265625 C 6.078125,-1.28125 5.1875,-0.3125 4,-0.3125 L 2.65625,-0.3125 z"
             id="path4930" />
        </symbol>
      </g>
    </defs>
    <g
       id="g4932">
      <g
         style="fill:#000000;fill-opacity:1"
         id="g4934">
        <use
           height="765"
           width="990"
           xlink:href="#textext-ebb944c4-1"
           x="223.43201"
           y="134.765"
           id="use4936" />
      </g>
    </g>
  </g>
  <g
     id="g4938"
     ns0:preamble=""
     ns0:text="$C$"
     transform="translate(349.81799,-26.483749)">
    <defs
       id="defs4940">
      <g
         id="g4942">
        <symbol
           id="symbol4944"
           overflow="visible"
           style="overflow:visible">
          <path
             id="path4946"
             d=""
             style="stroke:none" />
        </symbol>
        <symbol
           id="symbol4948"
           overflow="visible"
           style="overflow:visible">
          <path
             id="path4950"
             d="M 7.578125,-6.921875 C 7.578125,-6.953125 7.5625,-7.03125 7.46875,-7.03125 C 7.4375,-7.03125 7.421875,-7.015625 7.3125,-6.90625 L 6.625,-6.140625 C 6.53125,-6.28125 6.078125,-7.03125 4.96875,-7.03125 C 2.734375,-7.03125 0.5,-4.828125 0.5,-2.515625 C 0.5,-0.875 1.671875,0.21875 3.203125,0.21875 C 4.0625,0.21875 4.828125,-0.171875 5.359375,-0.640625 C 6.28125,-1.453125 6.453125,-2.359375 6.453125,-2.390625 C 6.453125,-2.5 6.34375,-2.5 6.328125,-2.5 C 6.265625,-2.5 6.21875,-2.46875 6.203125,-2.390625 C 6.109375,-2.109375 5.875,-1.390625 5.1875,-0.8125 C 4.5,-0.265625 3.875,-0.09375 3.359375,-0.09375 C 2.46875,-0.09375 1.40625,-0.609375 1.40625,-2.15625 C 1.40625,-2.734375 1.609375,-4.34375 2.609375,-5.515625 C 3.21875,-6.21875 4.15625,-6.71875 5.046875,-6.71875 C 6.0625,-6.71875 6.65625,-5.953125 6.65625,-4.796875 C 6.65625,-4.390625 6.625,-4.390625 6.625,-4.28125 C 6.625,-4.1875 6.734375,-4.1875 6.765625,-4.1875 C 6.890625,-4.1875 6.890625,-4.203125 6.953125,-4.390625 L 7.578125,-6.921875 z"
             style="stroke:none" />
        </symbol>
      </g>
    </defs>
    <g
       id="g4952">
      <g
         id="g4954"
         style="fill:#000000;fill-opacity:1">
        <use
           id="use4956"
           y="134.765"
           x="223.43201"
           xlink:href="#textext-985e667b-1"
           width="990"
           height="765" />
      </g>
    </g>
  </g>
  <path
     id="path4958"
     d="M 472.5,146.25 L 528.75,146.25"
     style="fill:none;fill-rule:evenodd;stroke:#000000;stroke-width:0.99000001;stroke-linecap:butt;stroke-linejoin:miter;marker-end:url(#Arrow2Mend);stroke-miterlimit:4;stroke-dasharray:none;stroke-opacity:1" />
  <g
     id="g5130"
     ns0:preamble=""
     ns0:text="$\\mathsf{R}_{120}$"
     transform="translate(109.25,6.359375)">
    <defs
       id="defs5132">
      <g
         id="g5134">
        <symbol
           id="textext-cac1cb37-0"
           overflow="visible"
           style="overflow:visible">
          <path
             id="path5137"
             d=""
             style="stroke:none" />
        </symbol>
        <symbol
           id="textext-cac1cb37-1"
           overflow="visible"
           style="overflow:visible">
          <path
             id="path5140"
             d="M 4.171875,-3.25 C 5.203125,-3.546875 5.875,-4.25 5.875,-5.0625 C 5.875,-6.046875 4.78125,-6.921875 3.359375,-6.921875 L 0.953125,-6.921875 L 0.953125,0 L 1.8125,0 L 1.8125,-3.15625 L 3.390625,-3.15625 L 5.265625,0 L 6.15625,0 L 4.171875,-3.25 z M 1.8125,-3.765625 L 1.8125,-6.359375 L 3.25,-6.359375 C 4.40625,-6.359375 5.0625,-5.765625 5.0625,-5.0625 C 5.0625,-4.359375 4.421875,-3.765625 3.25,-3.765625 L 1.8125,-3.765625 z"
             style="stroke:none" />
        </symbol>
        <symbol
           id="textext-cac1cb37-2"
           overflow="visible"
           style="overflow:visible">
          <path
             id="path5143"
             d=""
             style="stroke:none" />
        </symbol>
        <symbol
           id="textext-cac1cb37-3"
           overflow="visible"
           style="overflow:visible">
          <path
             id="path5146"
             d="M 2.328125,-4.4375 C 2.328125,-4.625 2.328125,-4.625 2.125,-4.625 C 1.671875,-4.1875 1.046875,-4.1875 0.765625,-4.1875 L 0.765625,-3.9375 C 0.921875,-3.9375 1.390625,-3.9375 1.765625,-4.125 L 1.765625,-0.578125 C 1.765625,-0.34375 1.765625,-0.25 1.078125,-0.25 L 0.8125,-0.25 L 0.8125,0 C 0.9375,0 1.796875,-0.03125 2.046875,-0.03125 C 2.265625,-0.03125 3.140625,0 3.296875,0 L 3.296875,-0.25 L 3.03125,-0.25 C 2.328125,-0.25 2.328125,-0.34375 2.328125,-0.578125 L 2.328125,-4.4375 z"
             style="stroke:none" />
        </symbol>
        <symbol
           id="textext-cac1cb37-4"
           overflow="visible"
           style="overflow:visible">
          <path
             id="path5149"
             d="M 3.515625,-1.265625 L 3.28125,-1.265625 C 3.265625,-1.109375 3.1875,-0.703125 3.09375,-0.640625 C 3.046875,-0.59375 2.515625,-0.59375 2.40625,-0.59375 L 1.125,-0.59375 C 1.859375,-1.234375 2.109375,-1.4375 2.515625,-1.765625 C 3.03125,-2.171875 3.515625,-2.609375 3.515625,-3.265625 C 3.515625,-4.109375 2.78125,-4.625 1.890625,-4.625 C 1.03125,-4.625 0.4375,-4.015625 0.4375,-3.375 C 0.4375,-3.03125 0.734375,-2.984375 0.8125,-2.984375 C 0.96875,-2.984375 1.171875,-3.109375 1.171875,-3.359375 C 1.171875,-3.484375 1.125,-3.734375 0.765625,-3.734375 C 0.984375,-4.21875 1.453125,-4.375 1.78125,-4.375 C 2.484375,-4.375 2.84375,-3.828125 2.84375,-3.265625 C 2.84375,-2.65625 2.40625,-2.1875 2.1875,-1.9375 L 0.515625,-0.265625 C 0.4375,-0.203125 0.4375,-0.1875 0.4375,0 L 3.3125,0 L 3.515625,-1.265625 z"
             style="stroke:none" />
        </symbol>
        <symbol
           id="textext-cac1cb37-5"
           overflow="visible"
           style="overflow:visible">
          <path
             id="path5152"
             d="M 3.59375,-2.21875 C 3.59375,-2.984375 3.5,-3.546875 3.1875,-4.03125 C 2.96875,-4.34375 2.53125,-4.625 1.984375,-4.625 C 0.359375,-4.625 0.359375,-2.71875 0.359375,-2.21875 C 0.359375,-1.71875 0.359375,0.140625 1.984375,0.140625 C 3.59375,0.140625 3.59375,-1.71875 3.59375,-2.21875 z M 1.984375,-0.0625 C 1.65625,-0.0625 1.234375,-0.25 1.09375,-0.8125 C 1,-1.21875 1,-1.796875 1,-2.3125 C 1,-2.828125 1,-3.359375 1.09375,-3.734375 C 1.25,-4.28125 1.6875,-4.4375 1.984375,-4.4375 C 2.359375,-4.4375 2.71875,-4.203125 2.84375,-3.796875 C 2.953125,-3.421875 2.96875,-2.921875 2.96875,-2.3125 C 2.96875,-1.796875 2.96875,-1.28125 2.875,-0.84375 C 2.734375,-0.203125 2.265625,-0.0625 1.984375,-0.0625 z"
             style="stroke:none" />
        </symbol>
      </g>
    </defs>
    <g
       id="textext-cac1cb37-6">
      <g
         id="g5155"
         style="fill:#000000;fill-opacity:1">
        <use
           id="use5157"
           y="134.765"
           x="223.43201"
           xlink:href="#textext-cac1cb37-1"
           width="990"
           height="765" />
      </g>
      <g
         id="g5159"
         style="fill:#000000;fill-opacity:1">
        <use
           id="use5161"
           y="136.259"
           x="229.866"
           xlink:href="#textext-cac1cb37-3"
           width="990"
           height="765" />
        <use
           id="use5163"
           y="136.259"
           x="233.83759"
           xlink:href="#textext-cac1cb37-4"
           width="990"
           height="765" />
        <use
           id="use5165"
           y="136.259"
           x="237.80916"
           xlink:href="#textext-cac1cb37-5"
           width="990"
           height="765" />
      </g>
    </g>
  </g>
</svg>
